<svg xmlns="http://www.w3.org/2000/svg" width="100" viewBox="0 0 2000 960" height="150" xmlns:v="https://vecta.io/nano"><path fill="#f9f9f9" d="M1536 961c-510.5 0-1020.5-.005-1530.5.093-3.748.001-4.595-.843-4.593-4.592V5.5C.906 1.752 1.749.907 5.5.907h1991c3.747-.001 4.595.841 4.594 4.592v951c.001 3.747-.84 4.598-4.592 4.595L1536 961z"/><path d="M552.313 780.489c-1.626-7.659-2.402-15.035-2.335-22.529l-.007-40.495c-.023-3.026.631-4.514 4.107-4.504l103.988.011c3.129-.007 3.993 1.211 3.959 4.137l-.003 29.995c.334 17.467 5.615 33.04 17.593 46.191 12.365 13.576 27.407 21.184 45.772 22.815 20.454 1.817 40.929 1.084 61.36.679 19.54-.387 36.825-7.57 50.279-22.346 11.306-12.417 17.959-26.888 17.966-43.921l-.002-298.925c-2.723-6.244-3.242-6.369-7.823-1.828l-42.693 42.637c-6.078 6.03-7.718 5.86-13.955.034-12.737-11.897-25.712-23.534-38.782-35.066-2.566-2.264-5.589-4.275-6.669-8.231-.592-.975-1.077-1.661-1.675-2.229-4.49-4.271-4.601-4.379.144-8.661 16.574-14.957 31.571-31.511 47.688-46.924l72.6-71.414 37.319-36.738c3.251-3.205 4.822-2.836 7.81.163l155.26 155.09c4.496 4.456 2.295 6.669-.416 10.202-1.216 2.168-1.755 4.274-3.39 5.867-12.644 12.318-24.105 25.788-36.93 37.935-5.932 5.619-7.669 5.581-13.739.203l-50.331-43.289c-2.645-2.297-4.667-2.326-6.264 1.442l-.151 262.451.005 30.954c.028 11.437-1.361 22.786-2.084 34.176-.061.958-.544 1.889-.945 3.232-.817 1.825-.273 3.372-.74 5.16-.197.32-.232.229-.186.212-4.224 17.615-10.432 34.47-21.697 48.905-22.979 29.446-53.272 46.077-90.33 50.427-2.811.33-5.658.15-8.489.151-51.296.006-102.592.186-153.887-.062-33.17-.161-61.359-12.677-85.574-35.233-16.254-15.14-27.08-33.273-33.234-54.403-1.062-3.646-2.317-7.279-2.655-11.483-.255-.335-.157-.294-.177-.245-.933-1.278-.292-2.798-.689-4.543zm298.072-530.271c-3.434-.907-2.3-3.361-2.319-5.109l-.079-35.431c-5.746-27.211-20.21-46.901-46.287-56.991-8.014-3.101-16.523-4.028-25.019-4.151l-50.982-.031c-39.184.557-62.472 27.012-70.083 57.948-.24.976-.066 1.995-.391 3.331l-.175 304.113c.001 2.289-1.485 5.574 1.295 6.755 3.055 1.298 4.543-2.111 6.32-3.874l46.23-46.328c2.92-2.992 4.908-2.895 7.64-.39l22.76 20.744c9.569 8.655 18.712 17.789 28.843 25.811 5.542 4.388-.218 6.092-2.147 9.048-.883 2.971-2.657 4.915-4.557 6.823l-92.136 90.759-54.681 54.046c-1.555 1.506-3.04 3.087-4.668 4.512-3.539 3.097-5.498 3.054-9.095-.154-1.242-1.108-2.398-2.31-3.577-3.486l-144.454-144.45c-2.098-2.096-4.572-3.948-5.51-7.38-5.516-6.613-5.461-6.558.558-12.711l34.048-35.066c2.173-2.252 4.011-4.828 6.177-7.087 4.856-5.064 4.994-5.129 10.147-.684l45.832 39.768c3.38 2.923 6.914 5.669 10.42 8.442.832.657 1.489 2.209 2.844 1.346 1.105-.704.595-2.13.652-3.246.075-1.496.023-2.999.023-4.498l.082-308.458c.043-23.119 6.489-44.693 18.734-64.39 20.267-32.601 49.626-52.081 87.06-59.446 7.745-1.524 15.78-2.158 23.685-2.191l142.98-.017c20.59.109 40.445 4.399 58.929 13.752 23.19 11.734 41.375 28.899 54.211 51.546 10.193 17.984 15.461 37.243 16.551 58.035.759 14.48.325 28.919.699 43.37.043 1.68.844 3.706-1.472 5.157-3.181 1.447-6.168 1.503-9.164 1.505-30.546.023-61.091.031-91.637-.014-2.643-.004-5.332.139-8.285-1.228z" fill="#0e4e78"/><path fill="#105079" d="M1487.95 466.194c-2.318-3.675-4.679-7-7.092-10.399 1.66-1.297 3.371-.742 4.933-.744l130.459-.111c3.749-.011 5.859 1.151 7.951 4.326l58.238 87.622 22.44 33.838c.797 1.201 1.665 2.355 2.757 3.893l26.222-37.159 62.86-89.057c1.783-2.544 3.614-3.421 6.532-3.417l129.96.066c1.239.001 3.009-.708 3.629.674.706 1.574-.92 2.636-1.855 3.768-1.575 1.907-3.117 3.842-4.824 6.059.571 2.623-1.031 3.995-2.282 5.533l-90.544 111.487-55.947 68.908c-1.928 2.391-3.5 4.859-3.419 8.42l39.853 49.752 31.32 39.02 33.764 42.153 35.041 43.652 30.851 38.555-8.385.05c-2.073 2.095-4.38 2.329-6.758 2.333l-121.498.018c-3.899-.006-6.515-1.652-8.724-4.765l-81.652-115.509c-2.882-4.084-5.678-8.233-8.741-12.182-3.021-3.894-4.272-3.86-7.111.17l-25.937 37.362-62.337 89.973c-2.448 3.536-5.398 4.981-9.616 4.981-43.166.001-86.332.024-129.499-.063-2.109-.004-4.4.272-6.294-1.935-2.853-.338-5.477-.338-9.353-.338l15.29-18.768 30.931-37.438 26.575-32.094 30.448-37.101 26.242-31.584 25.57-30.934 18.902-22.737c.515-3.471-.726-6.013-2.67-8.503l-65.448-83.151-73.13-92.979c-2.791-3.577-6.779-6.416-7.652-11.645z"/><path d="M65.422 872.339c-4.058-.052-5.834-.454-3.734-5.009l22.333-50.331 32.287-72.535 21.869-48.89 32.089-72.018 22.361-49.772 31.593-71.174 19.406-42.941c1.287-2.906 3.029-3.721 6.079-3.714l121.967-.011c3.37-.009 5.091 1.178 6.398 4.159l27.106 61.19 19.438 42.958 36.747 82.425 24.359 53.793 30.49 68.886 20.081 44.341 24.673 55.223c1.9 4.234-1.565 2.667-3.584 3.167-1.949 1.778-4.025 1.389-5.996 1.388-34.814-.018-69.629.064-104.443-.042-11.431-.035-9.372.375-13.353-9.314l-27.882-68.298c-2.717-6.77-7.492-9.463-14.837-9.437l-145.921.09c-5.497 0-10.997.109-16.49-.009-5.941-.128-9.848 3.252-11.762 8.042l-22.359 54.892-7.922 19.582c-1.073 2.853-3.007 4.452-6.264 4.393-2.492-.046-4.994.093-7.492.094-32.649.007-65.298.018-97.947-.017-2.975-.003-6.015.351-9.29-1.109zm892.842.1c-1.945-.446-3.592-.543-6.03-.685l11.703-26.554 27.339-61.669 21.9-48.905 32.209-72.493 22.224-49.3 31.722-71.576 23.104-51.114 14.014-31.201c.961-2.218 2.141-2.953 4.423-2.951l124.448-.037c2.97-.007 4.021 1.515 5.024 3.757l18.514 41.176 18.895 42.56 28.633 64.277 20.089 44.288 30.738 69.347 19.663 43.362 27.337 61.649 18.62 41.105c1.75 3.759.653 4.809-3.424 4.601-1.343 1.42-2.648 1.761-4.288 1.727-34.819-.737-69.643-.141-104.465-.331-10.525-.058-10.364-.104-14.565-9.791-9.544-22.01-18.149-44.404-27.478-66.501-3.75-8.881-6.238-10.697-15.88-10.7-52.988-.016-105.976.086-158.964-.11-7.871-.029-12.559 2.987-15.457 10.203l-28.82 70.709c-1.691 4.178-3.981 6.187-8.626 6.193-36.492.048-72.983-.095-109.474.046-1.025.004-1.992-.077-3.127-1.081z" fill="#0e4e78"/><path d="M64.991 872.499c2.41-1.341 4.93-1.113 7.419-1.113l105.429.095c4.378.023 6.43-1.419 8.041-5.432l31.408-77.255c1.482-3.685 3.387-4.86 7.34-4.851l172.385-.007c4.184-.011 6.123 1.363 7.65 5.156l31.421 77.251c1.561 3.888 3.623 5.141 7.728 5.123l104.93-.062c2.481.002 4.962.335 7.848.622.412.274.381.453.432.605 2.802 8.371 2.802 8.371-5.979 8.371-35.64 0-71.281-.056-106.921.077-4.05.015-5.777-1.065-7.373-5.162-7.565-19.417-15.778-38.58-23.729-57.846l-8.009-19.925c-1.333-3.508-2.923-5.299-7.337-5.283l-173.371.078c-3.645-.006-5.853.482-7.308 4.532-6.407 17.84-14.194 35.147-21.128 52.793-3.77 9.595-7.648 19.223-11.862 28.674-.887 1.99-2.283 2.065-3.981 2.065-38.305-.006-76.61-.024-114.915.029-3.263.005-3.847-1.022-2.217-3.755.83-1.391 1.397-2.939 2.099-4.78zm892.86-.079c2.681-1.349 5.376-1.024 8.024-1.026l104.425.081c4.361.021 6.412-1.409 8.034-5.449l31.451-77.234c1.506-3.747 3.447-4.849 7.36-4.841l172.876-.002c3.79-.008 5.546 1.252 6.935 4.693l31.634 77.699c1.576 3.928 3.653 5.136 7.735 5.119l103.426-.059c2.817.003 5.633.305 8.855.592 4.937 9.008 4.937 9.008-5.007 9.008-35.811 0-71.623-.079-107.434.116-3.784.021-5.678-1.21-6.96-4.465-8.019-20.353-16.015-40.713-24.934-60.701-2.77-6.208-4.926-12.693-7.279-19.082-1.033-2.804-2.638-3.955-5.865-3.949l-175.892.022c-2.609-.003-3.892.592-4.944 3.188l-33.25 81.361c-.87 2.135-1.451 3.589-4.311 3.58l-116.928-.102c-.472 0-.945-.161-1.677-.294.624-2.973 2.319-5.365 3.727-8.257zm514.022 1.014l99.62-.485 35.991.084c3.941.079 6.321-1.203 8.567-4.464l88.155-127.422c.854-1.233 1.867-2.38 2.552-3.699 2.041-3.932 3.506-3.047 5.709.1l48.977 69.434 43.502 61.674c2.281 3.276 4.744 4.376 8.633 4.368l125.941.063c1.023 3.612 5.401 4.805 5.759 8.916h-4.846c-42.314 0-84.627-.045-126.94.076-3.835.011-6.138-1.025-8.451-4.334l-63.043-89.253-32.602-46.22-42.327 61.949-52.39 75.485c-1.601 2.374-3.741 2.311-6.096 2.31l-106.45-.013h-36.346c1.337-3.773 4.982-5.09 6.085-8.569z" fill="#8b95a1"/><path fill="#8b95a0" d="M552.974 785.379c1.841 2.216 2.06 5.453 2.966 8.433 15.611 51.374 62.627 88.94 116.191 90.168 52.605 1.206 105.28 1.195 157.886.009 54.155-1.221 101.194-39.098 116.737-91.448.52-1.751 1.128-3.476 2.016-5.398-.363 11.416-4.551 22.07-9.134 32.483-6.969 15.835-17.099 29.636-30 41.108-17.228 15.319-37.125 25.683-59.889 30.322-11.028 2.247-22.127 2.99-33.347 2.974-46.955-.065-93.919.516-140.862-.235-27.407-.438-52.426-9.414-74.501-26.177-18.183-13.807-31.356-31.389-40.141-52.251-3.964-9.415-7.444-19.119-7.92-29.988z"/><path fill="#8994a0" d="M447.004 526.323c2.376-.015 3.449 1.848 4.824 3.223l148.949 149.167c3.689 3.711 5.506 3.328 8.987-.114l151.226-148.998c1.29-1.269 2.776-2.339 4.495-3.579 4.11 2.987 3.039 5.203-.18 8.356l-53.519 53.13c-20.557 19.401-39.713 40.212-60.348 59.475-14.953 13.958-29.018 28.768-43.779 42.89-1.655 1.584-2.994 3.486-4.549-.134-.489-1.138-1.803-1.924-2.744-2.866L450.249 536.757c-1.059-1.059-1.955-2.429-3.219-3.11-4.333-2.334-3.159-4.599-.025-7.324z"/><path d="M655.353 209.928c-.2-27.677 23.491-55.506 52.525-61.812 3.245-.705 6.569-1.453 9.86-1.472 25.779-.142 51.743-3.002 77.272 1.605 28.658 5.171 51.512 31.982 53.077 60.527-3.273-8.918-6.755-18.194-13.158-25.932-10.979-13.268-24.471-22.531-41.691-25.928-4.281-.844-8.504-.904-12.781-.907-20.147-.016-40.32-.664-60.433.156-26.11 1.065-45.46 13.866-57.955 36.835-2.865 5.267-5.528 10.668-6.717 16.927zm1122.917 450.15c-4.012-2.014-3.661-4.309-1.106-7.447l149.066-183.325c.936-1.151 2.102-2.114 3.47-3.312 1.909-.003 3.509.142 5.554.327-3.619 6.412-8.566 11.233-12.748 16.61-10.728 13.795-21.869 27.272-32.884 40.828l-29.302 35.566c-8.06 9.408-15.373 19.452-23.189 29.075l-24.518 29.556-34.344 42.123z" fill="#8b95a0"/><path fill="#8a95a0" d="M1487.593 465.907c2.567.753 3.702 2.677 5.025 4.355l144.897 183.77c2.13 2.699 3.989 5.139-.191 7.982-9.603-11.446-18.936-23.035-28.178-34.696l-29.263-36.969c-10.236-12.505-19.901-25.475-29.866-38.203l-28.222-35.847-27.853-35.494-11.154-13.843c1.482-1.474 3.053-.737 4.804-1.056z"/><path fill="#8b95a1" d="M849.953 250.516c1.332-1.267 2.854-1.121 4.335-1.122l100.584.007c1.153.001 2.306.197 3.832.486.164 9.115.164 9.115-8.877 9.115h-91.749c-8.059 0-8.059 0-8.124-8.485z"/><path d="M953.414 451.085c-.64-.34-1.163-.716-1.18-1.112-.109-2.567-1.457-6.031.757-7.424 2.431-1.529 4.273 1.803 6.047 3.313l53.774 46.21c3.287 2.87 5.202 3.148 8.391-.276l37.66-39.293c1.243-1.287 2.228-2.957 4.5-3.471 4.774 3.712 2.074 6.147-.953 9.185l-37.498 38.425c-2.498 2.584-4.04 7.305-7.341 7.561-3.244.251-5.584-4.007-8.289-6.343l-33.99-29.033c-7.11-6.007-14.347-11.863-21.878-17.742zm-208.716-2.13c8.13 4.747 14.189 11.703 21.063 17.7 9.666 8.432 19.125 17.109 28.487 25.88 2.822 2.644 4.562 2.561 7.285-.221l45.772-46.136 3.215-3.145c1.199-1.189 2.664-1.412 4.156-.888 1.681.59 1.224 2.199 1.232 3.443.01 1.65-.223 3.302-.64 5.252-3.173-.538-4.85 1.208-6.673 3.04L800.7 501.955c-2.608 2.654-3.769 2.501-6.442-.006l-47.692-43.859a11.15 11.15 0 0 0-1.151-.942c-5.342-3.709-5.343-3.707-.716-8.193z" fill="#8a95a0"/><path d="M552.146 780.537c.356 1.02.687 2.424.927 4.186-1.871-.72-.777-2.392-.927-4.186zm397.228 6.356c-.986-1.36-.397-2.803.266-4.574.169 1.251.122 2.817-.266 4.574z" fill="#8b95a0"/><path fill="#2284c7" d="M858.946 601.441c-.428-3.063-.706-5.715-.708-8.368l-.064-146.853c-.003-2.306 1.267-5.482-1.732-6.69-3.361-1.354-6.286-.079-8.922 2.614l-45.568 46.252c-2.914 2.995-4.664 3.428-8.007.334l-46.355-41.796c-3.22-2.847-3.74-4.618-.351-7.805 8.244-7.751 16.121-15.893 24.432-24.051l255.605-.525c3.126-.007 6.285-.04 9.444 2.112 2.011.516 3.01 1.679 4.065 2.735l20.511 20.49c2.133 2.087 2.809 3.59.353 6.112l-41.543 43.257c-2.162 2.274-3.67 2.481-6.174.315l-55.376-47.501c-2.091-1.795-4.168-3.69-7.075-2.47-2.789 1.17-1.97 4.086-1.993 6.2l-.155 53.979c.682 24.995-.314 49.97-.076 74.954l.044 25.89c-1.323 2.766-3.631 2.707-5.747 2.723l-79.219.006c-1.802-.013-3.696-.027-5.391-1.912z"/><path fill="#4696cd" d="M701.595 813.878c12.929 5.041 25.932 6.155 39.18 5.856 17.625-.397 35.264.578 52.886-.564 8.093-.525 15.637-3.02 23.477-5.978 34.698-1.397 69.029-.328 103.352-.657 2.831-.027 5.666-.055 8.493.188 1.865.16 3.684.415 4.834 2.823-3.04 8.038-8.325 14.281-13.476 20.51-12.963 15.679-29.009 27.316-47.578 35.672-14.519 6.534-29.731 10.03-45.499 10.115-50.805.272-101.646 1.247-152.408-.238-47.511-1.39-83.498-24.035-106.958-66.224 1.227-2.954 3.759-2.669 6.015-2.746 6.974-.238 13.954-.103 20.931-.105l88.219-.017c6.052-.006 12.096-.051 18.531 1.365z"/><path fill="#2e8ccb" d="M1037.009 416.639l-258.563.338c-2.094 0-4.398.554-6.278-1.744l62.613-61.875c6.185-.96 12.119-.834 18.049-.833h109.255c3.659 0 7.315-.013 11.423.536 9.364 8.712 18.281 17.427 27.122 26.219l32.452 32.489c1.395 1.401 3.054 2.604 3.926 4.87z"/><path fill="#3e92cc" d="M701.826 813.716c-2.413 1.51-5.274 1.279-8.098 1.28l-125.439.032c-9.808-16.216-14.354-33.868-15.146-52.388-.591-13.804-.071-27.652-.242-41.478-.044-3.598 1.021-5.036 4.811-5.023l96.463.001c3.687-.011 4.929 1.223 4.906 4.925-.07 11.323-.716 22.744.491 33.952 2.928 27.178 17.481 46.531 42.253 58.699z"/><path fill="#318cc9" d="M858.569 601.49l90.241-.465c1.377 8.632.98 17.297.785 25.925-.653 28.952-.03 57.896.084 86.843.008 2.156-.183 4.313-.412 6.858-1.95 2.507-4.439 2.734-6.969 2.746-25.806.125-51.612.14-77.417-.021-1.964-.012-4.046.064-5.906-1.938-.404-1.235-.642-2.054-.641-2.873l.233-117.075z"/><path fill="#3e92cc" d="M858.597 721.482l90.061-.45c.479 13.943.993 27.902.349 41.807-.859 18.554-5.293 36.322-14.754 52.917-3.298-.683-6.439-.771-9.609-.769-33.062.021-66.125.021-99.187-.005-2.453-.002-5.025.458-7.58-1.518 7.162-4.886 14.671-9.458 20.731-15.989 12.86-13.862 19.547-30.186 19.668-49.146l.321-26.847z"/><path fill="#3b93ce" d="M973.819 352.737c-1.009 2.467-3.111 2.25-5.087 2.25-42.855.011-85.71.011-128.565-.003-1.635-.001-3.368.221-4.88-1.485l67.161-66.915c2.918-2.899 4.531-1.041 6.499.938l47.864 48.698c5.339 5.668 11.697 10.327 17.009 16.516z"/><path fill="#2184c6" d="M651.452 407.662l.525 103.667.013 7.49c.086 5.008 3.96 7.071 8.293 4.311 1.377-.877 2.475-2.211 3.649-3.388l43.999-44.267c3.214-3.292 5.111-4.257 9.06-.556 15.052 14.105 30.537 27.748 45.858 41.566 2.162 1.95 4.433 3.669 1.183 6.806l-47.16 45.707c-3.167 1.88-6.31 2.458-9.655 2.46-67.467.036-134.934.041-202.401-.016-2.962-.003-5.875-.223-8.913-2.113-6.199-4.546-10.815-10.06-15.91-15.068l-28.997-28.964c-4.851-4.857-4.937-4.948-.346-9.775l39.006-40.834c2.577-2.726 4.426-3.024 7.433-.415l53.859 46.194c.633.542 1.268 1.083 1.866 1.662 1.862 1.804 4.16 2.338 6.467 1.493 2.491-.912 1.656-3.393 1.659-5.252l.013-101.964c0-1.499.051-2.998.133-4.964 2.354-3.504 5.741-2.842 8.806-2.859l64.424.043c5.675.062 11.147-1.364 17.138-.963z"/><path fill="#60a7da" d="M564.034 182.403c3.852-22.945 14.037-42.425 29.521-59.581 4.711.999 9.232.685 13.719.686l305.974.028c4.154.001 8.346-.319 12.881 1.093 15.745 17.426 25.248 37.472 29.209 60.581-.113 3.505-2.009 4.73-4.831 5.018-1.661.169-3.324.221-4.99.223-29.819.04-59.638.041-89.457-.006-3.146-.005-6.379.225-9.515-2.183-9.826-20.729-24.798-34.963-46.59-41.544-6.09-1.839-12.313-2.868-18.701-2.865-18.331.008-36.661.044-54.991-.053-29.26-.154-51.141 12.526-66.167 37.911-2.675 2.255-5.559 2.726-8.619 2.731-26.864.047-53.728.082-80.591-.044-2.273-.011-4.703.242-6.852-1.997z"/><path fill="#6aaddd" d="M926.419 124.472c-2.468 1.541-5.298 1.534-8.14 1.534l-316.716-.037c-2.694-.001-5.852.862-7.573-2.948 19.19-22.674 43.969-34.986 72.685-40.024 7.886-1.384 15.87-1.805 23.866-1.808l137.317.014c21.396.034 42.088 3.699 61.073 14.004 9.808 5.324 19.273 11.352 27.203 19.427 3.246 3.305 7.353 5.704 10.285 9.839z"/><path fill="#2a88c8" d="M495.638 569.418l220.425-.323c-2.547 4.938-7.614 7.816-11.557 11.847l-95.036 94.333c-3.391 3.38-5.226 3.462-8.649.011L499.876 574.132c-1.41-1.411-2.706-2.935-4.238-4.714z"/><path fill="#328ecc" d="M651.858 407.512c-4.286 3.165-8.952 3.574-13.888 3.547l-76.374-.081-.521-83.537c2.188-3.343 5.367-2.842 8.275-2.859l57.192-.04c8.239.015 16.49.337 24.892-1.848l.424 84.818z"/><path fill="#4397d1" d="M651.861 322.516c-3.324 4.119-7.503 4.591-12.188 4.561l-78.079-.097-.521-76.533c2.188-3.349 5.368-2.846 8.275-2.864l56.699-.06c8.393-.013 16.838.541 25.39-1.83l.423 76.823z"/><path fill="#519fd5" d="M846.17 188.346l100.504-.354c2.806 0 5.695.275 8.357-2.098 2.5 7.508 2.352 15.538 2.547 23.491.265 10.811-.052 21.635.108 32.45.055 3.724-.893 5.242-5.015 5.221-32.119-.161-64.239-.168-96.358.003-4.404.024-5.133-1.695-5.19-5.563-.19-12.793 1-25.627-.953-38.378-.76-4.961-2.252-9.712-4.001-14.773z"/><path fill="#53a0d6" d="M651.865 245.52c-3.609 4.075-8.016 4.576-12.87 4.548l-77.399-.083c-.073-22.461-2.501-45.012 1.986-67.674l95.841-.324c-7.501 15.51-8.005 32.217-7.479 49.109.145 4.648-.014 9.306-.079 14.425z"/><path fill="#3a90cb" d="M1535.244 791.425l44.341-54.859 59.135-71.363c4.809-4.822 10.596-4.723 16.493-4.711l106.428.025c4.609-.002 9.193-.042 13.878 2.355l66.499 82.037 36.612 45.824c-1.896 3.432-5.175 2.649-8.032 2.67-19.621.145-39.245-.049-58.865.102-18.285.141-36.58-.648-55.335.595-11.685-15.611-22.895-31.305-34.095-47.006l-8.945-12.622c-3.88-5.407-3.906-5.401-7.57-.107l-36.344 52.531c-1.135 1.64-2.335 3.236-3.738 5.077-3.242 1.441-6.413 1.487-9.584 1.488-37.329.021-74.659.046-111.988-.038-2.925-.007-6.057.586-8.889-1.998z"/><path fill="#2887c7" d="M1775.832 662.708c-3.293 2.05-6.725.232-10.163.24-38.733.09-77.467.09-116.2-.002-3.448-.008-6.474 1.313-10.1 2.005 4.594-6.965 4.564-6.941-.893-13.835l-76.954-97.311c-.51-.646-.864-1.416-1.433-2.434-.406-3.12 1.318-4.117 3.701-4.492 2.306-.363 4.635-.337 6.958-.339l97.634-.003c3.654.002 7.34-.135 11.04 2.205l25.132 37.523c2.362 3.664 3.623 3.295 5.893.036l30.438-43.033c2.93-2.123 5.967-2.708 9.201-2.712l103.14.073c2.937.014 6.62-.864 7.836 3.888l-56.907 70.874-28.335 34.947c-4.807 5.95-4.772 5.978.01 12.37z"/><path fill="#1f83c6" d="M1679.716 548.709l-111.528.299c-2.643 0-5.361-.263-7.942 1.807l-45.936-57.291-24.408-31.029c-.862-1.103-2.666-2.09-1.824-3.745.673-1.324 2.405-.787 3.676-.788l123.453-.065c2.986-.005 4.933.999 6.588 3.498l57.921 87.314z"/><path fill="#4596cd" d="M1534.717 791.189l121.524-.182c2.817.001 5.671-.261 8.804 1.025-10.172 15.404-20.811 30.614-31.355 45.891l-18.972 28.079c-1.918 2.918-4.069 4.261-7.701 4.252l-131.838-.102c-1.403-.001-3.365.735-4.084-.848-.704-1.549 1.068-2.623 1.972-3.717l61.65-74.399z"/><path fill="#1e82c5" d="M1861.276 544.82c-2.215-2.332-5.025-1.802-7.627-1.803l-112.076-.005 47.984-69.1c2.103-2.999 4.585-5.791 6.282-9.002 2.916-5.518 7.038-7.176 13.29-7.127l115.386.151h7.565l-70.804 86.885z"/><path fill="#4596cd" d="M1756.048 794.493c1.523-4.127 4.98-3.466 8.051-3.469l114.215-.001c7.641 8.928 14.825 17.855 22.022 26.773l37.324 46.222c.628.778 1.307 1.522 1.864 2.348.622.922 1.945 1.724 1.373 2.983-.587 1.291-2.056.806-3.143.806l-124.979.056c-2.654.003-4.288-1.081-5.749-3.164l-50.978-72.555z"/><path fill="#378fca" d="M108.186 772.414c6.093-14.907 12.363-29.415 18.803-43.849l41.849-93.267c2.817-2.97 6.045-3.764 9.715-3.765l90.913.039c3.007.008 6.035.064 8.81 2.555 1.592 2.093.822 3.732.146 5.489l-25.904 65.74c-.427 1.081-.882 2.136-1.074 3.307-.405 2.464.268 3.758 3.065 3.699 5.261-.111 10.489.341 15.783-.517 6.179-1.002 12.504-.377 18.76-.389l75.582-.171c6.993-.121 8.261-1.913 5.755-8.151l-24.971-62.899c-.651-1.6-1.192-3.103-.145-5.147 2.102-2.986 4.862-3.457 7.755-3.471l91.65-.02c2.371.009 4.539.599 6.94 2.143l27.763 60.634 34.443 77.29c-.976 2.199-2.769 2.496-4.641 2.641-2.66.205-5.325.166-7.988.166-126.878.007-253.756.018-380.635-.047-4.059-.002-8.353 1.001-12.374-2.009z"/><path fill="#2485c6" d="M278.36 636.137c-2.916-1.989-5.887-2.139-8.909-2.138-30.225.007-60.451-.023-90.676.046-2.965.007-5.928.601-9.315.943l22.103-51.143 53.031-119.07c1.922-4.354 4.339-5.773 9-5.751l112.39-.058c6.09-.051 8.998 1.748 11.487 7.365l73.366 164.137c.407.909.729 1.857 1.15 3.145-3.229 1.474-6.524.316-9.817.328l-86.208.041c-3.359-.004-6.644.135-10.068 1.914-3.136-.152-3.556-2.526-4.272-4.46-8.675-23.434-18.536-46.398-27.603-69.677-.449-1.153-.825-2.566-2.587-3.213-3.352 4.524-4.787 10.007-6.817 15.141l-24.251 60.851c-.338.822-.785 1.439-2.005 1.598z"/><g fill="#4495cd"><path d="M107.711 772.25l405.717-.238 24.187 52.658c-2.304 3.618-5.904 2.729-9.085 2.74l-94.105.024c-3.6-.007-7.305.766-11.22-1.08-6.389-13.077-11.592-26.207-16.636-39.394-1.448-3.784-3.36-5.357-7.616-5.347l-175.852.004c-4.115-.009-6.418 1.299-7.927 5.053l-30.153 74.935c-2.228 5.721-4.992 7.603-11.176 7.54l-102.912-.17c-6.645-.002-6.65-.027-3.866-6.242l40.644-90.484z"/><path d="M422.861 826.448c3.142-1.398 6.451-1.463 9.788-1.461l104.615.013c6.406 13.204 12.316 26.432 18.36 39.597 1.432 3.119 1.182 4.432-2.683 4.423-36.48-.08-72.961-.078-109.442.002-2.904.006-4.086-1.371-5.043-3.768l-15.595-38.806z"/></g><path fill="#4093cc" d="M1391.316 738.781l56.741 125.577c1.822 4.034.686 4.704-3.253 4.693-35.814-.103-71.628-.12-107.442.024-3.85.016-5.534-1.452-6.901-4.841l-31.227-76.823c-1.667-4.164-3.675-5.809-8.334-5.795l-174.905.008c-4.59-.012-6.715 1.497-8.404 5.729l-30.577 75.468c-1.921 4.841-4.405 6.329-9.529 6.294l-104.443-.128c-6.286-.001-6.299-.029-3.874-5.449l55.294-123.399c2.029-1.948 4.251-2.463 6.648-2.531 2.499-.071 4.998-.081 7.497-.081l350.923.026c3.799.001 7.681-.56 11.787 1.229z"/><path fill="#338dca" d="M1391.647 738.714c-2.328 1.04-4.79 1.297-7.31 1.297l-366.186-.026c-.832 0-1.664-.044-2.993-.096 4.367-11.141 9.169-22.281 14.107-33.361l22.268-49.349c2.92-4.036 6.747-4.692 11.114-4.684l91.128.074c2.626.006 5.338-.245 8.075 1.527 2.48 2.74 1.625 5.206.538 7.743-5.874 13.708-11.479 27.523-16.802 41.456-2.562 6.705-.975 9.413 6.466 9.042 31.434-1.567 62.883-.52 94.323-.832l12.22-.005c5.401-.043 6.819-2.267 4.825-7.25l-30.107-75.304c-2.03-5.081-3.684-10.312-6.102-15.239-.785-1.6-.97-3.177.725-4.893 3.042-1.539 5.914-1.248 8.715-1.254l86.846-.009c3.302.005 6.708-.307 9.998 2.194l37.307 82.16 20.843 46.809z"/><path fill="#2284c6" d="M1333.84 609.668l-105.718.368c-2.716.093-3.004-1.66-3.655-3.191-6.03-14.172-11.063-28.737-16.959-42.961-.189-.455-.268-.965-.516-1.397-.804-1.399-1.197-3.515-3.159-3.434-1.774.073-1.76 2.229-2.322 3.475-2.859 6.339-4.979 12.978-7.67 19.392-.733 1.747-1.263 3.517-4.082 3.227-4.686-2.224-9.236-2.725-13.981-2.71l-72.483.031c-4.506-.002-9.007-.082-13.301 1.652-1.609.65-3.233.85-4.965-.798l22.88-52.954 29.219-65.747c1.8-4.127 4.084-5.627 8.625-5.607l115.442.073c3.155-.003 5.624.225 7.202 3.774l65.006 145.525c.136.304.244.62.438 1.28z"/><path fill="#2c89c8" d="M1084.555 583.202c12.037-5.163 24.462-2.936 36.64-3.12l59.976-.15c3.763-.027 6.859.755 9.577 3.879 2.226 2.3.687 4.268-.068 6.145l-24.313 61.483c-.675 1.683-1.304 3.439-3.309 4.613-2.897-.921-5.533-1.06-8.208-1.059-31.214.013-62.428.033-93.642-.031-3.07-.006-5.914.557-9.069 1.868l23.568-54.26 8.848-19.368z"/><path d="M277.945 636.398l31.007-77.782 2.812-6.642 33.578 83.794 28.09 70.881c2.43 6.154 2.199 6.51-4.286 6.524l-90.435.169-25.468.394c-5.358.032-5.493-.241-3.478-5.38l28.18-71.957zm884.615 20.118l28.419-72.139 12.558-30.593 1.351-.254 22.545 56.243 29.255 73.651 9.575 24.152c2.092 5.371 1.956 5.565-3.776 5.578l-86.46.105c-9.991-.027-19.969 1.101-29.964.235-5.38-.466-5.707-.956-3.667-6.109l20.163-50.869z" fill="#12517a"/><path fill="#f9f9f9" d="M369.148 709.601c-37.893.67-75.569-.105-113.691 1.323-2.037-1.722-.916-3.372-.309-4.923l25.367-64.324 27.998-70.838c.622-1.563.746-3.947 3.018-3.988 2.52-.046 2.715 2.434 3.416 4.169l53.463 133.724c.557 1.371 1.455 2.845.739 4.857z"/><path fill="#8793a0" d="M369.174 710.117l-22.169-54.396-19.583-48.688c-4.268-11.58-9.06-22.937-13.442-34.461-.631-1.658-1.407-3.261-2.496-5.76-7.013 20.333-15.041 39.335-22.661 58.479l-29.765 74.535c-1.426 3.4-2.688 6.868-4.048 10.676-3.641.781-2.846-1.224-2.034-3.276l11.557-29.258 45.144-114.24c.483-1.221 1.032-2.416 1.574-3.678 2.079.769 2.08 2.673 2.643 4.084l56.234 141.536c.468 1.185 4.013 3.84-.956 4.446z"/><path fill="#f9f9f9" d="M1261.294 709.6l-71.112.377c-14.101-.072-28.146 1.854-42.725.949-1.518-4.254 1.234-7.477 2.589-10.961l45.116-114.611 5.614-14.118c.622-1.6 1.149-3.516 3.255-3.685 2.291-.183 2.782 1.779 3.44 3.412l45.282 113.698c2.808 6.993 5.811 13.91 8.265 21.047.419 1.22 1.039 2.291.277 3.891z"/><path fill="#8793a0" d="M1261.306 710.005l-23.844-58.901c-6.903-18.356-14.42-36.46-21.507-54.738l-11.483-28.554c-3.916 6.368-5.81 12.984-8.33 19.257l-37.554 94.806-11.451 28.676c-4.471.355-1.995-2.267-1.477-3.623l11.133-28.354L1201.34 565.7c.726-1.839 1.542-3.643 2.405-5.672 1.823.742 1.914 2.351 2.414 3.604l56.49 141.986c.489 1.235 3.798 4.102-1.343 4.387z"/></svg>