
<svg version="1.1" id="Layer_1" xmlns="http://www.w3.org/2000/svg" xmlns:xlink="http://www.w3.org/1999/xlink" x="0px" y="0px"
	 width="100" viewBox="0 0 2000 960" enable-background="new 0 0 2000 960" xml:space="preserve">
<path fill="#f9f9f9" opacity="1.000000" stroke="none" 
	d="
M1536.000000,961.000000 
	C1025.500122,961.000000 515.500183,960.995178 5.500291,961.092773 
	C1.751965,961.093506 0.905617,960.250122 0.906810,956.500305 
	C1.007732,639.500366 1.007749,322.500397 0.906941,5.500475 
	C0.905749,1.752431 1.749449,0.906653 5.499566,0.907198 
	C669.166077,1.003708 1332.832642,1.003695 1996.499146,0.907430 
	C2000.246094,0.906887 2001.094360,1.748012 2001.093262,5.499225 
	C2000.992188,322.499146 2000.992065,639.499084 2001.092773,956.499023 
	C2001.093994,960.245728 2000.252808,961.096863 1996.500854,961.094116 
	C1843.167358,960.984009 1689.833618,961.000000 1536.000000,961.000000 
z"/>
<path fill="#0E4E78" opacity="1.000000" stroke="none" 
	d="
M552.313049,780.488953 
	C550.687439,772.829529 549.911316,765.453979 549.978210,757.960205 
	C550.098755,744.462830 550.074463,730.963196 549.971130,717.465576 
	C549.947998,714.439880 550.602234,712.951355 554.078186,712.961304 
	C588.740540,713.060364 623.403381,713.051392 658.065857,712.971985 
	C661.194824,712.964783 662.058594,714.183044 662.025208,717.108643 
	C661.911072,727.106201 661.831116,737.108765 662.021973,747.104004 
	C662.355530,764.570923 667.636536,780.143799 679.615173,793.295349 
	C691.980469,806.871582 707.022095,814.479126 725.387634,816.110352 
	C745.841309,817.927124 766.316956,817.193970 786.747253,816.789429 
	C806.287720,816.402466 823.572510,809.219055 837.026123,794.443481 
	C848.332458,782.026245 854.985474,767.555054 854.992065,750.522156 
	C855.030579,651.033752 855.005371,551.545410 854.990356,451.597046 
	C852.267395,445.352966 851.748413,445.228058 847.167480,449.769440 
	C832.884277,463.929413 818.753052,478.241852 804.474976,492.406860 
	C798.396729,498.436981 796.757263,498.266876 790.519531,492.440765 
	C777.782349,480.544037 764.807678,468.906708 751.737122,457.375244 
	C749.171143,455.111389 746.148254,453.100616 745.068237,449.144348 
	C744.476013,448.169067 743.990784,447.483429 743.393677,446.915527 
	C738.903320,442.644806 738.792297,442.536652 743.537537,438.254425 
	C760.111389,423.297729 775.108948,406.743561 791.225525,391.330292 
	C815.763367,367.863342 839.377991,343.455933 863.825745,319.916382 
	C876.403809,307.805481 888.715637,295.431488 901.144592,283.178375 
	C904.395142,279.973816 905.966125,280.342102 908.954590,283.340912 
	C960.590881,335.155060 1012.257812,386.939728 1064.214966,438.431305 
	C1068.710938,442.887024 1066.510132,445.100311 1063.798828,448.633728 
	C1062.582886,450.802155 1062.044067,452.907410 1060.408936,454.500305 
	C1047.764893,466.817963 1036.304077,480.288055 1023.478882,492.435089 
	C1017.546631,498.053833 1015.809631,498.015808 1009.739685,492.637848 
	C993.175720,477.962036 976.118286,463.857025 959.408875,449.348663 
	C956.763489,447.051788 954.742126,447.022919 953.144653,450.790894 
	C953.039734,538.500488 953.016235,625.870972 952.993713,713.241455 
	C952.991089,723.559570 952.973450,733.877686 952.998718,744.195740 
	C953.026611,755.632446 951.637817,766.981689 950.915100,778.371826 
	C950.854309,779.329834 950.370972,780.261047 949.970093,781.603943 
	C949.153564,783.429321 949.697083,784.975708 949.230591,786.763916 
	C949.033691,787.084290 948.999084,786.993225 949.044556,786.975830 
	C944.820251,804.590637 938.612915,821.445679 927.347839,835.880554 
	C904.368408,865.326294 874.075928,881.957886 837.017578,886.307800 
	C834.206970,886.637695 831.359497,886.458130 828.528748,886.458496 
	C777.233154,886.464417 725.936584,886.644958 674.642212,886.396423 
	C641.471741,886.235596 613.283203,873.719910 589.068298,851.163574 
	C572.814575,836.023193 561.988464,817.890930 555.833984,796.760620 
	C554.771851,793.114136 553.516541,789.481995 553.178955,785.277527 
	C552.924072,784.942383 553.022034,784.983276 553.001709,785.032349 
	C552.069092,783.753967 552.710144,782.234192 552.313049,780.488953 
z"/>
<path fill="#0E4E78" opacity="1.000000" stroke="none" 
	d="
M850.385498,250.218384 
	C846.951416,249.311523 848.085449,246.857193 848.066772,245.109329 
	C847.942505,233.450745 847.968140,221.790543 847.988037,209.678009 
	C842.242065,182.466980 827.778076,162.776733 801.700562,152.687195 
	C793.686096,149.586365 785.177917,148.658981 776.681458,148.536545 
	C759.690430,148.291672 742.690979,148.263977 725.699951,148.505310 
	C686.515991,149.061844 663.228088,175.517746 655.617126,206.452820 
	C655.377075,207.428558 655.551453,208.447403 655.226318,209.783356 
	C655.006226,311.382782 654.986755,412.639496 655.051453,513.896118 
	C655.052917,516.185547 653.566345,519.469910 656.346497,520.651062 
	C659.401123,521.948792 660.889587,518.539612 662.666565,516.776855 
	C678.154907,501.412018 693.659302,486.060059 708.896912,470.448486 
	C711.817139,467.456573 713.805115,467.553192 716.536621,470.058411 
	C724.101746,476.996674 731.684082,483.916473 739.296875,490.802368 
	C748.865417,499.457214 758.008972,508.591064 768.139465,516.613037 
	C773.681396,521.001465 767.921143,522.704590 765.992554,525.661255 
	C765.109192,528.632690 763.335205,530.575806 761.435608,532.484497 
	C731.023743,563.041504 700.014160,592.995789 669.299133,623.243591 
	C651.040588,641.224365 633.029236,659.461182 614.618347,677.289368 
	C613.063599,678.794922 611.578674,680.376160 609.950073,681.801147 
	C606.411072,684.897766 604.451965,684.854980 600.854736,681.646790 
	C599.612305,680.538696 598.456421,679.337219 597.278076,678.161133 
	C549.081848,630.056335 501.001251,581.835999 452.823029,533.713196 
	C450.724579,531.617126 448.251434,529.764893 447.312592,526.333618 
	C441.796417,519.720947 441.851990,519.775330 447.870758,513.622498 
	C459.263458,501.976227 470.606323,490.280884 481.918579,478.556427 
	C484.091736,476.304169 485.929413,473.728790 488.095978,471.469452 
	C492.952271,466.405243 493.090057,466.340027 498.243378,470.785309 
	C513.559021,483.996582 528.776855,497.321228 544.075012,510.552887 
	C547.454529,513.475891 550.988586,516.222229 554.495056,518.994873 
	C555.326599,519.652344 555.984131,521.203918 557.338562,520.340759 
	C558.443787,519.636353 557.934021,518.210815 557.990234,517.095215 
	C558.065552,515.599121 558.012756,514.096558 558.012756,512.596741 
	C558.012390,409.777374 557.903015,306.957764 558.094604,204.138763 
	C558.137695,181.019455 564.583862,159.445786 576.829102,139.748428 
	C597.095886,107.147720 626.455383,87.667206 663.888916,80.302101 
	C671.634094,78.778229 679.668640,78.143921 687.574036,78.111389 
	C735.233398,77.915253 782.894958,77.840744 830.553833,78.094009 
	C851.143677,78.203438 870.998901,82.493362 889.483032,91.846107 
	C912.672974,103.579865 930.857544,120.745148 943.693726,143.391937 
	C953.886963,161.375839 959.154297,180.635086 960.244812,201.427185 
	C961.004272,215.907303 960.569702,230.346069 960.943359,244.797287 
	C960.986755,246.477585 961.787720,248.503387 959.471252,249.954514 
	C956.290405,251.401031 953.303467,251.457581 950.307373,251.459869 
	C919.761658,251.483200 889.215881,251.491348 858.670166,251.446121 
	C856.027344,251.442215 853.338318,251.585052 850.385498,250.218384 
z"/>
<path fill="#105079" opacity="1.000000" stroke="none" 
	d="
M1487.950073,466.194214 
	C1485.632080,462.519043 1483.271240,459.194061 1480.857910,455.795013 
	C1482.517700,454.498291 1484.229126,455.052795 1485.790771,455.051453 
	C1529.277222,455.014771 1572.763916,455.067871 1616.250000,454.940643 
	C1619.999390,454.929657 1622.109375,456.091156 1624.200928,459.266174 
	C1643.492798,488.553162 1663.005859,517.694458 1682.438721,546.888672 
	C1689.938110,558.155029 1697.393433,569.450867 1704.879150,580.726318 
	C1705.676392,581.927002 1706.543945,583.080994 1707.636475,584.619446 
	C1716.518188,572.031677 1725.178101,559.739014 1733.858032,547.460571 
	C1754.832886,517.789917 1775.861694,488.157104 1796.717651,458.403198 
	C1798.501099,455.858948 1800.331421,454.982056 1803.250000,454.985718 
	C1846.569824,455.040405 1889.889771,455.016754 1933.209595,455.051697 
	C1934.448120,455.052704 1936.218872,454.343445 1936.838623,455.725281 
	C1937.544556,457.299042 1935.918823,458.361206 1934.983643,459.493378 
	C1933.408203,461.400177 1931.866821,463.335266 1930.159790,465.552063 
	C1930.730591,468.175415 1929.128662,469.547028 1927.877930,471.085144 
	C1897.676880,508.231262 1867.526489,545.418579 1837.334351,582.572083 
	C1818.675415,605.533325 1799.961792,628.450439 1781.387207,651.480286 
	C1779.458984,653.870972 1777.886963,656.339294 1777.967773,659.900024 
	C1791.246460,676.717163 1804.549438,693.171753 1817.820679,709.651794 
	C1828.281372,722.641907 1838.708862,735.658813 1849.140747,748.672058 
	C1860.400879,762.718445 1871.641846,776.780273 1882.904297,790.824768 
	C1894.577271,805.381104 1906.273926,819.918457 1917.944946,834.476501 
	C1927.926514,846.927063 1937.886230,859.395020 1948.796387,873.031250 
	C1945.307983,873.031250 1943.072144,873.031250 1940.411621,873.081299 
	C1938.338745,875.176086 1936.031860,875.410645 1933.653320,875.414490 
	C1893.153931,875.480469 1852.654541,875.493286 1812.155151,875.432861 
	C1808.255859,875.427063 1805.639893,873.781250 1803.430786,870.668152 
	C1776.143433,832.214783 1748.963745,793.685425 1721.779053,755.159607 
	C1718.897461,751.075745 1716.100708,746.926208 1713.038208,742.978027 
	C1710.017212,739.083618 1708.765869,739.117615 1705.927002,743.148438 
	C1697.197266,755.543579 1688.616455,768.042969 1679.990356,780.510254 
	C1659.230347,810.514282 1638.420654,840.483826 1617.653687,870.482910 
	C1615.205811,874.018982 1612.255981,875.464233 1608.037842,875.464355 
	C1564.871704,875.465454 1521.705444,875.488098 1478.539307,875.400940 
	C1476.430176,875.396667 1474.139648,875.672607 1472.245117,873.465637 
	C1469.392578,873.127869 1466.768188,873.127869 1462.892578,873.127869 
	C1468.501221,866.239258 1473.310791,860.274109 1478.182617,854.360291 
	C1488.475220,841.866333 1498.795288,829.395020 1509.113770,816.922363 
	C1517.967163,806.220398 1526.858154,795.549377 1535.688721,784.828674 
	C1545.860352,772.479736 1555.956299,760.068542 1566.137207,747.727356 
	C1574.847656,737.168945 1583.644165,726.681702 1592.378906,716.143494 
	C1600.916260,705.843628 1609.409180,695.507202 1617.949097,685.209595 
	C1624.172607,677.705322 1630.440796,670.238220 1636.851562,662.472534 
	C1637.366821,659.001526 1636.125122,656.459045 1634.181152,653.969910 
	C1612.471069,626.169189 1590.533203,598.548157 1568.732788,570.818726 
	C1544.362549,539.820312 1519.859131,508.926514 1495.602539,477.839233 
	C1492.811768,474.262421 1488.823364,471.423645 1487.950073,466.194214 
z"/>
<path fill="#0E4E78" opacity="1.000000" stroke="none" 
	d="
M65.421829,872.338623 
	C61.363445,872.286560 59.587345,871.884705 61.688160,867.329285 
	C69.374008,850.663757 76.577156,833.776123 84.021484,816.998474 
	C94.755165,792.807495 105.529228,768.634460 116.308121,744.463562 
	C123.579239,728.158630 130.903870,711.877563 138.176941,695.573425 
	C148.883606,671.572083 159.543518,647.549805 170.265732,623.555420 
	C177.686188,606.949829 185.224152,590.396667 192.627106,573.783386 
	C203.192200,550.073853 213.637161,526.310791 224.220261,502.609283 
	C230.624481,488.266663 237.265884,474.029694 243.626282,459.667999 
	C244.913223,456.762146 246.655411,455.946960 249.704849,455.953918 
	C290.360352,456.046936 331.016205,456.056610 371.671570,455.943085 
	C375.041138,455.933655 376.762665,457.121155 378.069824,460.101654 
	C387.029938,480.531189 396.073090,500.924683 405.175751,521.291199 
	C411.588959,535.640259 418.196472,549.902344 424.613922,564.249512 
	C436.896667,591.709595 449.061371,619.222595 461.361420,646.674866 
	C469.409790,664.637756 477.695435,682.494568 485.720886,700.467651 
	C495.959106,723.396240 505.989868,746.417419 516.210693,769.353943 
	C522.814819,784.174194 529.643188,798.894287 536.291748,813.695007 
	C544.552979,832.085938 552.709595,850.523804 560.964355,868.917664 
	C562.864441,873.151489 559.399353,871.584534 557.380127,872.085144 
	C555.430725,873.863159 553.355042,873.474304 551.384583,873.473328 
	C516.570129,873.455383 481.755493,873.537170 446.941284,873.431091 
	C435.510071,873.396240 437.569519,873.806152 433.587860,864.117065 
	C424.241516,841.373047 414.865936,818.639465 405.706177,795.818909 
	C402.988770,789.048645 398.213898,786.356079 390.869568,786.381409 
	C342.229858,786.549133 293.589233,786.470947 244.948914,786.471191 
	C239.451965,786.471191 233.951782,786.580688 228.458893,786.462219 
	C222.518356,786.334106 218.610550,789.713928 216.696991,794.503967 
	C209.367294,812.852234 201.656387,831.044128 194.337646,849.396301 
	C191.730301,855.934448 188.895752,862.384460 186.415161,868.978027 
	C185.341782,871.830933 183.408508,873.430481 180.150940,873.370911 
	C177.659180,873.325317 175.156708,873.463989 172.658447,873.464478 
	C140.009460,873.471313 107.360474,873.482910 74.711533,873.447266 
	C71.736046,873.444031 68.696579,873.797913 65.421829,872.338623 
z"/>
<path fill="#0E4E78" opacity="1.000000" stroke="none" 
	d="
M958.263672,872.438721 
	C956.318970,871.992371 954.671448,871.895996 952.234131,871.753357 
	C956.259827,862.617676 960.092102,853.905884 963.936707,845.199524 
	C973.020020,824.629700 981.858276,803.946716 991.275757,783.530945 
	C998.759277,767.307556 1005.945923,750.959290 1013.175415,734.626038 
	C1023.877808,710.446594 1034.600708,686.276123 1045.384521,662.132996 
	C1052.736084,645.674255 1060.271118,629.297485 1067.608765,612.832642 
	C1078.231689,588.995789 1088.698364,565.089355 1099.330444,541.256653 
	C1106.947998,524.181274 1114.729126,507.178864 1122.433960,490.142456 
	C1127.132202,479.753998 1131.913940,469.401611 1136.447876,458.941833 
	C1137.409302,456.724060 1138.589233,455.988373 1140.870972,455.990692 
	C1182.353638,456.033081 1223.836548,456.054169 1265.318970,455.953308 
	C1268.289307,455.946075 1269.339844,457.467865 1270.343018,459.709869 
	C1276.489258,473.446381 1282.716309,487.146698 1288.856567,500.885864 
	C1295.189941,515.056763 1301.444336,529.262878 1307.751587,543.445496 
	C1317.282593,564.877136 1326.787842,586.320496 1336.384277,607.722839 
	C1343.016724,622.514099 1349.866577,637.208069 1356.473267,652.010681 
	C1366.778198,675.099915 1376.908691,698.267090 1387.211548,721.357300 
	C1393.678467,735.850220 1400.399292,750.229736 1406.874390,764.719055 
	C1416.045898,785.242188 1425.059937,805.835754 1434.211060,826.368164 
	C1440.334473,840.107422 1446.483643,853.837219 1452.831421,867.473328 
	C1454.581543,871.232727 1453.484009,872.282715 1449.407715,872.074097 
	C1448.064941,873.494568 1446.759521,873.835510 1445.119873,873.800781 
	C1410.300659,873.063843 1375.476562,873.660278 1340.655029,873.469910 
	C1330.129761,873.412354 1330.290649,873.365906 1326.090210,863.678711 
	C1316.546631,841.669067 1307.941650,819.274231 1298.612183,797.177368 
	C1294.862305,788.295898 1292.374390,786.480347 1282.732056,786.477478 
	C1229.744141,786.461548 1176.755737,786.563171 1123.768555,786.367126 
	C1115.897583,786.338013 1111.209229,789.354187 1108.311401,796.570557 
	C1098.827148,820.189575 1089.037354,843.685913 1079.490967,867.280029 
	C1077.800415,871.457947 1075.509521,873.466797 1070.865356,873.472961 
	C1034.373779,873.520935 997.882202,873.377502 961.390869,873.519348 
	C960.365662,873.523315 959.398926,873.442200 958.263672,872.438721 
z"/>
<path fill="#8B95A1" opacity="1.000000" stroke="none" 
	d="
M64.990898,872.499146 
	C67.400757,871.158020 69.921227,871.386597 72.410065,871.385986 
	C107.553322,871.377258 142.696991,871.299683 177.839325,871.480530 
	C182.217148,871.503052 184.269196,870.061707 185.879852,866.048462 
	C196.233459,840.250183 206.918777,814.585022 217.288330,788.793030 
	C218.769958,785.107849 220.675598,783.932739 224.628494,783.942078 
	C282.089905,784.078186 339.551849,784.083435 397.013214,783.935547 
	C401.196960,783.924805 403.136658,785.298645 404.663330,789.091553 
	C415.043091,814.879517 425.728271,840.544678 436.083893,866.342163 
	C437.644745,870.230530 439.706726,871.482910 443.811859,871.465332 
	C478.787903,871.315186 513.764893,871.368958 548.741577,871.403381 
	C551.222900,871.405823 553.704041,871.738464 556.589294,872.025635 
	C557.000977,872.299988 556.970764,872.478943 557.021667,872.630859 
	C559.823486,881.001709 559.824097,881.001526 551.042664,881.001526 
	C515.402283,881.001526 479.761719,880.945618 444.121857,881.078613 
	C440.071777,881.093689 438.344757,880.013184 436.748932,875.916931 
	C429.184418,856.500366 420.970520,837.337158 413.019897,818.070557 
	C410.289307,811.453552 407.553833,804.835388 405.011322,798.145325 
	C403.678131,794.637268 402.088684,792.846375 397.674255,792.862427 
	C339.884308,793.072693 282.093353,793.028381 224.302765,792.940125 
	C220.658249,792.934570 218.449707,793.422058 216.994995,797.472473 
	C210.587570,815.312805 202.801208,832.619446 195.867203,850.265564 
	C192.096939,859.860352 188.219406,869.488159 184.004868,878.940063 
	C183.117447,880.930237 181.722275,881.005554 180.023727,881.005310 
	C141.718658,880.998901 103.413551,880.981384 65.108543,881.034485 
	C61.845982,881.039001 61.261879,880.012085 62.891403,877.279419 
	C63.721008,875.888245 64.288841,874.340881 64.990898,872.499146 
z"/>
<path fill="#8B95A1" opacity="1.000000" stroke="none" 
	d="
M957.851196,872.419678 
	C960.532654,871.070557 963.227234,871.395569 965.875244,871.393982 
	C1000.683594,871.373047 1035.492310,871.303711 1070.299805,871.475159 
	C1074.661133,871.496582 1076.711548,870.065857 1078.333740,866.026062 
	C1088.692261,840.231018 1099.417603,814.583435 1109.784302,788.791626 
	C1111.290527,785.044495 1113.231323,783.942139 1117.144287,783.950500 
	C1174.769409,784.074036 1232.394897,784.073975 1290.019897,783.948547 
	C1293.810059,783.940308 1295.565918,785.200562 1296.955200,788.641846 
	C1307.424316,814.572327 1318.177612,840.388184 1328.589478,866.341309 
	C1330.165161,870.269226 1332.242432,871.477356 1336.324951,871.460510 
	C1370.799683,871.318237 1405.275146,871.368469 1439.750488,871.401367 
	C1442.567261,871.404053 1445.383911,871.706177 1448.605469,871.993347 
	C1453.542603,881.001526 1453.542603,881.001526 1443.598022,881.001526 
	C1407.786621,881.001526 1371.974731,880.922546 1336.164429,881.117493 
	C1332.380737,881.138062 1330.486572,879.907715 1329.204346,876.652893 
	C1321.185303,856.300049 1313.189087,835.939880 1304.269897,815.952332 
	C1301.499756,809.744385 1299.343872,803.259155 1296.990601,796.869995 
	C1295.957764,794.066040 1294.352539,792.915100 1291.125977,792.921265 
	C1232.495361,793.032593 1173.864502,793.020447 1115.233887,792.943176 
	C1112.624390,792.939758 1111.341553,793.535461 1110.290161,796.131287 
	C1099.291260,823.285950 1088.092285,850.359436 1077.040039,877.492554 
	C1076.170410,879.627502 1075.588623,881.081299 1072.728638,881.072937 
	C1033.752930,880.958923 994.776855,880.988708 955.800842,880.970825 
	C955.328369,880.970581 954.856018,880.809692 954.124084,880.676636 
	C954.747925,877.703369 956.442932,875.311829 957.851196,872.419678 
z"/>
<path fill="#8B95A1" opacity="1.000000" stroke="none" 
	d="
M1471.873047,873.433716 
	C1505.175537,873.067078 1538.333984,873.000732 1571.492554,872.948608 
	C1583.490234,872.929810 1595.491089,872.791687 1607.484009,873.032593 
	C1611.425293,873.111755 1613.804932,871.829590 1616.051270,868.568909 
	C1645.353149,826.037476 1674.797119,783.603943 1704.206543,741.146606 
	C1705.060303,739.914001 1706.073486,738.766296 1706.758301,737.447144 
	C1708.799683,733.514954 1710.264404,734.400146 1712.467163,737.547485 
	C1728.708374,760.751282 1745.095703,783.852783 1761.444336,806.981262 
	C1775.965942,827.524780 1790.572144,848.009216 1804.946289,868.655334 
	C1807.227051,871.931458 1809.689941,873.031799 1813.579346,873.023193 
	C1855.403931,872.930176 1897.229004,873.009155 1939.520508,873.086182 
	C1940.543213,876.697815 1944.921753,877.891113 1945.279907,882.002441 
	C1943.646240,882.002441 1942.040283,882.002502 1940.434204,882.002502 
	C1898.120605,882.002502 1855.807007,881.957642 1813.493774,882.078308 
	C1809.658813,882.089233 1807.356201,881.053406 1805.042725,877.744263 
	C1784.172852,847.892273 1763.036621,818.226440 1741.999268,788.491333 
	C1731.156860,773.166382 1720.356445,757.811646 1709.396851,742.271545 
	C1695.263672,763.006287 1681.468750,783.826660 1667.069946,804.220520 
	C1649.402954,829.243225 1631.806274,854.310486 1614.679688,879.705383 
	C1613.079102,882.078918 1610.938232,882.016357 1608.584106,882.015137 
	C1573.100708,881.996826 1537.617188,882.002380 1502.133789,882.002380 
	C1490.202759,882.002380 1478.271729,882.002380 1465.787720,882.002380 
	C1467.125000,878.229065 1470.770020,876.912598 1471.873047,873.433716 
z"/>
<path fill="#8B95A0" opacity="1.000000" stroke="none" 
	d="
M552.973694,785.378906 
	C554.814331,787.594482 555.033691,790.831543 555.939270,793.811707 
	C571.549927,845.185425 618.566162,882.751404 672.130066,883.979309 
	C724.734863,885.185242 777.409912,885.174377 830.015625,883.988708 
	C884.170898,882.768127 931.209412,844.890991 946.752380,792.540894 
	C947.272217,790.789856 947.880249,789.065063 948.768616,787.143188 
	C948.405762,798.559021 944.217529,809.212952 939.634399,819.626465 
	C932.665161,835.461914 922.535461,849.262878 909.634216,860.734558 
	C892.406250,876.053650 872.508728,886.417114 849.745117,891.056152 
	C838.717468,893.303528 827.618408,894.045654 816.398010,894.030090 
	C769.442871,893.965027 722.478821,894.546448 675.535583,893.795410 
	C648.128967,893.356934 623.110046,884.381409 601.034180,867.618347 
	C582.851501,853.811523 569.678284,836.229736 560.893372,815.367126 
	C556.928894,805.952332 553.449036,796.248352 552.973694,785.378906 
z"/>
<path fill="#8994A0" opacity="1.000000" stroke="none" 
	d="
M447.004242,526.323364 
	C449.380737,526.308777 450.453339,528.171387 451.828491,529.546082 
	C501.523529,579.223206 551.239685,628.879456 600.777222,678.713318 
	C604.465881,682.423950 606.283447,682.041626 609.764587,678.599304 
	C660.082336,628.841370 710.545166,579.230164 760.990540,529.601379 
	C762.280579,528.332153 763.766785,527.262451 765.486023,526.022705 
	C769.596497,529.009644 768.525024,531.225769 765.306030,534.378784 
	C747.347717,551.969116 730.061646,570.261047 711.786560,587.508667 
	C691.229553,606.909912 672.073914,627.720703 651.438293,646.983459 
	C636.485168,660.941650 622.420471,675.751709 607.659546,689.873535 
	C606.004211,691.457153 604.665955,693.359192 603.110657,689.739136 
	C602.621643,688.600769 601.308044,687.814758 600.366333,686.872986 
	C550.327576,636.833862 500.288361,586.795288 450.248535,536.757141 
	C449.189209,535.697815 448.293945,534.328186 447.029297,533.646912 
	C442.696533,531.312988 443.869812,529.047852 447.004242,526.323364 
z"/>
<path fill="#8B95A0" opacity="1.000000" stroke="none" 
	d="
M655.353394,209.928436 
	C655.153687,182.251648 678.844421,154.422165 707.878540,148.116608 
	C711.123535,147.411880 714.447632,146.663132 717.739014,146.644989 
	C743.518250,146.502838 769.482361,143.643188 795.011169,148.249939 
	C823.669006,153.421341 846.523071,180.232300 848.087769,208.776917 
	C844.814758,199.858887 841.332520,190.583023 834.929871,182.845108 
	C823.951050,169.576721 810.458557,160.313965 793.239014,156.917145 
	C788.958374,156.072723 784.734985,156.013138 780.458069,156.009796 
	C760.311340,155.994064 740.137878,155.346100 720.024597,156.166229 
	C693.914246,157.230881 674.564880,170.032578 662.069946,193.001038 
	C659.205017,198.267593 656.542419,203.669083 655.353394,209.928436 
z"/>
<path fill="#8B95A0" opacity="1.000000" stroke="none" 
	d="
M1778.269531,660.077759 
	C1774.257935,658.063721 1774.608154,655.768799 1777.163696,652.630493 
	C1826.895264,591.556885 1876.544678,530.416504 1926.230103,469.305359 
	C1927.165894,468.154419 1928.332520,467.191162 1929.699951,465.992920 
	C1931.608765,465.990326 1933.209229,466.135071 1935.254395,466.320068 
	C1931.635254,472.732269 1926.688232,477.553101 1922.506226,482.930542 
	C1911.778320,496.725067 1900.636963,510.202637 1889.622192,523.758545 
	C1879.945679,535.667358 1870.318481,547.654968 1860.320557,559.324280 
	C1852.260254,568.732239 1844.947632,578.776672 1837.131592,588.399231 
	C1829.061523,598.334595 1820.718384,608.047791 1812.613159,617.955017 
	C1801.212036,631.891113 1789.920288,645.916626 1778.269531,660.077759 
z"/>
<path fill="#8A95A0" opacity="1.000000" stroke="none" 
	d="
M1487.593018,465.907104 
	C1490.159790,466.660461 1491.294556,468.584076 1492.618164,470.262573 
	C1540.919678,531.517456 1589.197876,592.790771 1637.515625,654.032837 
	C1639.645264,656.731873 1641.504517,659.172241 1637.324463,662.015320 
	C1627.721558,650.569702 1618.388550,638.980713 1609.146851,627.319397 
	C1599.385498,615.002197 1589.843140,602.517273 1579.883667,590.349915 
	C1569.647949,577.845154 1559.982300,564.874817 1550.017944,552.146912 
	C1540.643311,540.172424 1531.193848,528.256592 1521.796143,516.300049 
	C1512.502441,504.476044 1503.250122,492.619568 1493.943481,480.805786 
	C1490.308960,476.192261 1486.575928,471.656372 1482.789429,466.963257 
	C1484.271484,465.489197 1485.842773,466.226318 1487.593018,465.907104 
z"/>
<path fill="#8B95A1" opacity="1.000000" stroke="none" 
	d="
M849.953247,250.516235 
	C851.285217,249.249146 852.807007,249.394928 854.288147,249.394501 
	C887.816162,249.384750 921.344177,249.384476 954.872192,249.401398 
	C956.025452,249.401978 957.178589,249.598419 958.703735,249.886902 
	C958.867920,259.001556 958.867920,259.001556 949.826904,259.001556 
	C919.243774,259.001556 888.660583,259.001587 858.077454,259.001556 
	C850.018066,259.001556 850.018066,259.001495 849.953247,250.516235 
z"/>
<path fill="#8A95A0" opacity="1.000000" stroke="none" 
	d="
M953.413574,451.085266 
	C952.773804,450.744873 952.250549,450.369751 952.233582,449.973022 
	C952.124329,447.405670 950.776855,443.941681 952.990967,442.548920 
	C955.421509,441.020050 957.263794,444.352173 959.037598,445.861511 
	C977.036743,461.177765 995.006958,476.530029 1012.811340,492.071503 
	C1016.098816,494.941162 1018.013245,495.219604 1021.202087,491.795990 
	C1033.566040,478.521790 1046.257935,465.552643 1058.862549,452.503418 
	C1060.105469,451.216583 1061.090454,449.546356 1063.362793,449.032837 
	C1068.136597,452.744720 1065.436890,455.180115 1062.409912,458.217865 
	C1049.778198,470.894470 1037.349731,483.774597 1024.911865,496.642883 
	C1022.414062,499.227142 1020.871948,503.948090 1017.570679,504.203400 
	C1014.326660,504.454285 1011.986206,500.196381 1009.281616,497.860291 
	C998.005371,488.120270 986.673950,478.443268 975.291626,468.827393 
	C968.181396,462.820770 960.944336,456.964386 953.413574,451.085266 
z"/>
<path fill="#8A95A0" opacity="1.000000" stroke="none" 
	d="
M744.698120,448.954712 
	C752.828430,453.701874 758.887329,460.658203 765.761169,466.654663 
	C775.427551,475.087128 784.886597,483.763947 794.248474,492.534637 
	C797.070618,495.178497 798.810791,495.096039 801.533264,492.313385 
	C816.682678,476.829285 832.025085,461.533966 847.305054,446.177612 
	C848.362488,445.114929 849.455505,444.087830 850.520081,443.032135 
	C851.719177,441.842957 853.184021,441.620483 854.675720,442.144043 
	C856.356689,442.733978 855.899719,444.342560 855.907654,445.586853 
	C855.918152,447.237091 855.684937,448.888855 855.267761,450.838562 
	C852.094543,450.300934 850.417480,452.046692 848.594421,453.878784 
	C832.638916,469.913849 816.555298,485.822205 800.699829,501.955078 
	C798.091858,504.608643 796.931030,504.455933 794.257385,501.949097 
	C778.502441,487.177551 762.492554,472.677979 746.565613,458.089996 
	C746.200378,457.755524 745.820618,457.430115 745.414551,457.148193 
	C740.072693,453.438904 740.071228,453.441040 744.698120,448.954712 
z"/>
<path fill="#8B95A0" opacity="1.000000" stroke="none" 
	d="
M552.146423,780.536804 
	C552.502747,781.556641 552.833679,782.960938 553.072998,784.723267 
	C551.202209,784.003296 552.296143,782.330994 552.146423,780.536804 
z"/>
<path fill="#8B95A0" opacity="1.000000" stroke="none" 
	d="
M949.373657,786.892883 
	C948.387634,785.533020 948.976807,784.089661 949.639526,782.318481 
	C949.808777,783.569336 949.761169,785.135376 949.373657,786.892883 
z"/>
<path fill="#2284C7" opacity="1.000000" stroke="none" 
	d="
M858.946411,601.441040 
	C858.518066,598.378479 858.239990,595.725586 858.238708,593.072632 
	C858.215393,544.121582 858.242310,495.170532 858.174377,446.219604 
	C858.171204,443.913818 859.441162,440.738007 856.442322,439.529388 
	C853.081726,438.175018 850.156006,439.449982 847.520447,442.143860 
	C832.384766,457.613831 817.046326,472.885773 801.952454,488.395996 
	C799.038208,491.390686 797.288757,491.823883 793.945740,488.729919 
	C778.677124,474.599243 763.178467,460.713562 747.591187,446.933685 
	C744.370850,444.086761 743.851013,442.315247 747.240479,439.128571 
	C755.484680,431.377686 763.361145,423.235687 771.672119,415.077820 
	C857.063843,414.050415 942.171204,414.737274 1027.277344,414.552551 
	C1030.403320,414.545746 1033.561890,414.513031 1036.721680,416.664062 
	C1038.732666,417.180328 1039.731323,418.343140 1040.786499,419.398773 
	C1047.618652,426.234039 1054.390625,433.130493 1061.297729,439.889099 
	C1063.430908,441.976562 1064.106934,443.478607 1061.650513,446.000916 
	C1047.702881,460.322754 1033.881958,474.768738 1020.107727,489.257935 
	C1017.946106,491.531830 1016.438049,491.738892 1013.934021,489.572693 
	C995.542053,473.661682 977.009521,457.913391 958.557678,442.071289 
	C956.466614,440.275940 954.389954,438.381653 951.482788,439.601196 
	C948.694153,440.770996 949.513123,443.687256 949.489502,445.800934 
	C949.288086,463.793518 948.843811,481.800446 949.334473,499.779541 
	C950.016602,524.774353 949.020813,549.749878 949.258728,574.733643 
	C949.339600,583.227783 949.350952,591.722534 949.302856,600.624023 
	C947.980347,603.389709 945.671570,603.330994 943.556030,603.347412 
	C917.149902,603.552856 890.743225,603.549011 864.336975,603.353088 
	C862.534485,603.339722 860.640930,603.325623 858.946411,601.441040 
z"/>
<path fill="#4696CD" opacity="1.000000" stroke="none" 
	d="
M701.595276,813.877563 
	C714.524170,818.918701 727.527161,820.032104 740.775757,819.733887 
	C758.401001,819.337036 776.039917,820.312012 793.662170,819.169617 
	C801.755615,818.644958 809.299072,816.149719 817.138794,813.191589 
	C851.836487,811.794922 886.167786,812.863586 920.490906,812.534241 
	C923.322388,812.507019 926.157166,812.479614 928.984131,812.722290 
	C930.849548,812.882385 932.667664,813.137024 933.817871,815.545288 
	C930.778015,823.583618 925.492432,829.825806 920.342224,836.055237 
	C907.379150,851.734314 891.333069,863.371338 872.764038,871.727661 
	C858.244629,878.261475 843.032776,881.757629 827.265503,881.842163 
	C776.460693,882.114319 725.619995,883.088745 674.857056,881.603943 
	C627.345703,880.214294 591.359192,857.568787 567.899414,815.380127 
	C569.125916,812.426147 571.658508,812.711182 573.914001,812.634338 
	C580.888184,812.396545 587.867981,812.531738 594.845459,812.529297 
	C624.251770,812.518860 653.658020,812.539551 683.064331,812.512573 
	C689.116638,812.507019 695.160339,812.461365 701.595276,813.877563 
z"/>
<path fill="#2E8CCB" opacity="1.000000" stroke="none" 
	d="
M1037.008667,416.638885 
	C950.891479,416.976227 864.668823,416.991333 778.446167,416.976562 
	C776.352173,416.976196 774.047913,417.530670 772.168640,415.232635 
	C792.804077,394.440430 813.649597,373.976471 834.781860,353.357666 
	C840.967346,352.397858 846.901001,352.523621 852.831116,352.524475 
	C889.249329,352.529724 925.667603,352.528198 962.085815,352.523773 
	C965.744629,352.523346 969.401245,352.511200 973.509277,353.059814 
	C982.873657,361.771393 991.790161,370.487305 1000.631226,379.279022 
	C1011.485046,390.072144 1022.284485,400.919983 1033.083130,411.768402 
	C1034.478027,413.169769 1036.137573,414.372833 1037.008667,416.638885 
z"/>
<path fill="#3E92CC" opacity="1.000000" stroke="none" 
	d="
M701.826294,813.715576 
	C699.413147,815.225281 696.552734,814.994873 693.728760,814.995789 
	C652.077148,815.008728 610.425537,815.013977 568.289917,815.027710 
	C558.481689,798.811584 553.936035,781.160034 553.143738,762.639221 
	C552.553162,748.835571 553.072998,734.987061 552.902222,721.161011 
	C552.857788,717.563293 553.923157,716.125427 557.713074,716.137878 
	C589.867188,716.243164 622.021912,716.239807 654.176025,716.139343 
	C657.862915,716.127869 659.105103,717.362183 659.082397,721.064392 
	C659.012817,732.387146 658.366516,743.808838 659.573792,755.016541 
	C662.501404,782.194275 677.054993,801.548035 701.826294,813.715576 
z"/>
<path fill="#318CC9" opacity="1.000000" stroke="none" 
	d="
M858.568604,601.490173 
	C888.581055,601.027527 918.494812,601.023743 948.810059,601.025513 
	C950.187256,609.657104 949.789795,618.322571 949.595154,626.950928 
	C948.942139,655.902466 949.565308,684.846802 949.679382,713.793945 
	C949.687866,715.950073 949.496338,718.106995 949.267822,720.651855 
	C947.318237,723.158752 944.829102,723.385681 942.298950,723.397949 
	C916.493286,723.523071 890.687439,723.537842 864.881958,723.376526 
	C862.917969,723.364258 860.835632,723.440674 858.976440,721.438721 
	C858.572266,720.204041 858.334595,719.384705 858.335266,718.565491 
	C858.367126,679.693298 858.419678,640.821167 858.568604,601.490173 
z"/>
<path fill="#3E92CC" opacity="1.000000" stroke="none" 
	d="
M858.596802,721.481995 
	C888.525391,721.023315 918.351990,721.023315 948.658203,721.031677 
	C949.136719,734.975037 949.651672,748.933960 949.007568,762.839111 
	C948.148193,781.392883 943.714233,799.161377 934.253540,815.755615 
	C930.955872,815.072571 927.814758,814.984863 924.644226,814.986938 
	C891.581909,815.008179 858.519592,815.008240 825.457275,814.982422 
	C823.004272,814.980530 820.432739,815.440308 817.876892,813.464844 
	C825.039001,808.579102 832.548157,804.007141 838.607605,797.475403 
	C851.467163,783.613281 858.154419,767.289551 858.275391,748.329102 
	C858.331543,739.532837 858.420654,730.736816 858.596802,721.481995 
z"/>
<path fill="#3B93CE" opacity="1.000000" stroke="none" 
	d="
M973.818848,352.736908 
	C972.809875,355.204376 970.708191,354.986847 968.731873,354.987335 
	C925.876709,354.997864 883.021606,354.998291 840.166443,354.984619 
	C838.531433,354.984100 836.798096,355.205994 835.285950,353.499664 
	C857.540649,331.009430 880.043884,308.847351 902.446838,286.584473 
	C905.364441,283.685181 906.977539,285.543365 908.945862,287.522522 
	C924.996094,303.660980 941.196716,319.648224 956.809448,336.220886 
	C962.148865,341.888519 968.506714,346.547638 973.818848,352.736908 
z"/>
<path fill="#2184C6" opacity="1.000000" stroke="none" 
	d="
M651.452148,407.662109 
	C651.871948,442.428284 651.924622,476.878632 651.976746,511.328979 
	C651.980530,513.825562 651.946655,516.322754 651.989441,518.818604 
	C652.075317,523.826172 655.949768,525.889282 660.282776,523.129456 
	C661.660095,522.252136 662.757568,520.918091 663.931458,519.741516 
	C678.625549,505.013245 693.396057,490.359406 707.930420,475.474915 
	C711.144592,472.183380 713.041321,471.218384 716.990479,474.918945 
	C732.042725,489.023682 747.527649,502.666656 762.848572,516.484741 
	C765.010132,518.434265 767.281372,520.153809 764.031494,523.290527 
	C748.349365,538.426086 732.775574,553.674011 716.871460,568.997192 
	C713.704468,570.877502 710.561279,571.455444 707.216614,571.457275 
	C639.749756,571.493591 572.282898,571.498535 504.816071,571.441528 
	C501.853607,571.439026 498.940582,571.218994 495.903351,569.328308 
	C489.704620,564.782776 485.088104,559.268127 479.993073,554.260254 
	C470.250061,544.684021 460.650360,534.962036 450.995789,525.295837 
	C446.144379,520.438599 446.058655,520.348083 450.649414,515.521179 
	C463.621582,501.881500 476.723297,488.364777 489.655151,474.687286 
	C492.232452,471.961426 494.081635,471.662842 497.087738,474.272522 
	C514.947876,489.777435 532.976562,505.088257 550.946838,520.466370 
	C551.579590,521.007874 552.214844,521.549500 552.812500,522.128601 
	C554.674133,523.932312 556.972473,524.466553 559.279968,523.621399 
	C561.770874,522.709106 560.936279,520.228271 560.938538,518.369080 
	C560.979187,484.381256 560.956116,450.393341 560.951965,416.405426 
	C560.951782,414.906494 561.003052,413.407593 561.084534,411.440979 
	C563.438049,407.937073 566.825500,408.598511 569.890320,408.582428 
	C591.365112,408.469757 612.842041,408.392487 634.314514,408.625397 
	C639.989685,408.686920 645.461548,407.261719 651.452148,407.662109 
z"/>
<path fill="#60A7DA" opacity="1.000000" stroke="none" 
	d="
M564.033569,182.403290 
	C567.885254,159.458328 578.070190,139.978378 593.554688,122.822227 
	C598.265320,123.821518 602.786743,123.507477 607.273376,123.508499 
	C709.264832,123.531677 811.256348,123.519569 913.247803,123.536728 
	C917.401733,123.537422 921.593384,123.217514 926.129028,124.629929 
	C941.874023,142.056412 951.377014,162.102173 955.337769,185.210861 
	C955.224426,188.716293 953.328674,189.940979 950.506409,190.228775 
	C948.845581,190.398132 947.182007,190.449890 945.516541,190.452103 
	C915.697632,190.491623 885.878784,190.492889 856.059875,190.445755 
	C852.913452,190.440781 849.680603,190.670624 846.544922,188.263046 
	C836.718811,167.533936 821.746460,153.299850 799.955139,146.719391 
	C793.865051,144.880341 787.641724,143.851685 781.254272,143.854614 
	C762.923767,143.863007 744.592957,143.898560 726.262878,143.801971 
	C697.003296,143.647812 675.121765,156.327866 660.096313,181.713104 
	C657.421143,183.967896 654.537109,184.438904 651.477112,184.444260 
	C624.613281,184.491257 597.749451,184.526062 570.885803,184.399887 
	C568.613220,184.389206 566.183167,184.641754 564.033569,182.403290 
z"/>
<path fill="#6AADDD" opacity="1.000000" stroke="none" 
	d="
M926.419434,124.471611 
	C923.951233,126.012482 921.121338,126.005943 918.279602,126.005753 
	C812.707520,125.998772 707.135437,126.005333 601.563354,125.968513 
	C598.869629,125.967575 595.710876,126.830841 593.989868,123.020737 
	C613.179871,100.346428 637.959290,88.034691 666.674438,82.996544 
	C674.560425,81.612930 682.544250,81.191757 690.540710,81.188431 
	C736.313110,81.169388 782.085571,81.128746 827.857849,81.202255 
	C849.253479,81.236610 869.946228,84.901253 888.930786,95.205772 
	C898.738892,100.529465 908.203613,106.557434 916.134033,114.632339 
	C919.379761,117.937218 923.487427,120.336227 926.419434,124.471611 
z"/>
<path fill="#2A88C8" opacity="1.000000" stroke="none" 
	d="
M495.637695,569.418213 
	C568.818054,569.100098 642.182129,569.089111 716.062866,569.095276 
	C713.515381,574.033264 708.448547,576.911377 704.505981,580.942139 
	C673.291748,612.854675 641.085999,643.767944 609.470398,675.275391 
	C606.079285,678.654907 604.244080,678.737061 600.821228,675.286438 
	C567.274536,641.467285 533.543274,607.831299 499.875916,574.131775 
	C498.466400,572.720947 497.170380,571.196777 495.637695,569.418213 
z"/>
<path fill="#328ECC" opacity="1.000000" stroke="none" 
	d="
M651.858337,407.512146 
	C647.572327,410.677216 642.906250,411.085846 637.970459,411.059357 
	C612.665710,410.923584 587.359985,410.989136 561.596680,410.978821 
	C561.097839,383.285217 561.056946,355.597137 561.076050,327.442078 
	C563.264099,324.099243 566.442810,324.600342 569.350708,324.582642 
	C588.414368,324.466492 607.478638,324.508728 626.542603,324.542999 
	C634.782043,324.557831 643.032776,324.879578 651.434570,322.694580 
	C651.846130,351.003815 651.871704,379.025055 651.858337,407.512146 
z"/>
<path fill="#4397D1" opacity="1.000000" stroke="none" 
	d="
M651.861267,322.516479 
	C648.537048,326.635803 644.358154,327.107391 639.673462,327.077301 
	C613.801025,326.911011 587.926941,326.990540 561.594727,326.980469 
	C561.093872,301.621185 561.051819,276.267273 561.073242,250.447174 
	C563.260925,247.098572 566.440979,247.600906 569.348633,247.582932 
	C588.247864,247.466110 607.147705,247.551514 626.047363,247.523178 
	C634.440552,247.510605 642.885559,248.064407 651.437805,245.693512 
	C651.847473,271.340729 651.874756,296.695587 651.861267,322.516479 
z"/>
<path fill="#519FD5" opacity="1.000000" stroke="none" 
	d="
M846.170471,188.345871 
	C879.644714,187.986404 913.159668,187.995682 946.674561,187.991928 
	C949.481018,187.991608 952.370056,188.267319 955.031738,185.894104 
	C957.531250,193.401627 957.383667,201.432175 957.578613,209.384949 
	C957.843567,220.195816 957.526123,231.019913 957.687012,241.834930 
	C957.742371,245.558762 956.793884,247.076599 952.672424,247.055923 
	C920.553467,246.894745 888.432983,246.887695 856.314148,247.059311 
	C851.910278,247.082825 851.181458,245.364685 851.123962,241.496475 
	C850.933655,228.703079 852.123535,215.869217 850.171082,203.118408 
	C849.411499,198.157379 847.919434,193.406784 846.170471,188.345871 
z"/>
<path fill="#53A0D6" opacity="1.000000" stroke="none" 
	d="
M651.864990,245.519928 
	C648.256287,249.595245 643.848999,250.095917 638.995361,250.067795 
	C613.349243,249.919159 587.701904,249.992340 561.595886,249.984802 
	C561.523010,227.524078 559.094849,204.972870 563.581787,182.310532 
	C595.501709,181.979019 627.231995,181.983917 659.422729,181.986649 
	C651.921692,197.496628 651.417969,214.203201 651.943909,231.095276 
	C652.088623,235.743332 651.929565,240.400818 651.864990,245.519928 
z"/>
<path fill="#3A90CB" opacity="1.000000" stroke="none" 
	d="
M1535.243652,791.425415 
	C1549.849487,772.850647 1564.663818,754.664673 1579.584717,736.566589 
	C1599.167725,712.813538 1618.834595,689.129761 1638.720215,665.203857 
	C1643.529541,660.381714 1649.316528,660.480896 1655.212769,660.492615 
	C1690.688477,660.563293 1726.164551,660.534241 1761.640503,660.517273 
	C1766.249146,660.515076 1770.833984,660.475708 1775.518066,662.872070 
	C1797.992798,690.314880 1820.025879,717.594971 1842.016724,744.909058 
	C1854.211670,760.055786 1866.335938,775.259399 1878.628418,790.732788 
	C1876.732788,794.164490 1873.453491,793.381348 1870.596802,793.402405 
	C1850.975586,793.547119 1831.352295,793.353027 1811.731445,793.504517 
	C1793.446411,793.645813 1775.151489,792.856567 1756.396729,794.099609 
	C1744.711548,778.488770 1733.502075,762.794373 1722.301880,747.093323 
	C1719.307251,742.895203 1716.362793,738.661194 1713.356445,734.471497 
	C1709.476685,729.064514 1709.450439,729.070190 1705.786377,734.364563 
	C1693.669189,751.873169 1681.562134,769.388733 1669.442139,786.895386 
	C1668.306641,788.535461 1667.106689,790.131042 1665.704346,791.972839 
	C1662.462036,793.414246 1659.291748,793.459351 1656.120117,793.461121 
	C1618.790894,793.481995 1581.461548,793.506653 1544.132446,793.423340 
	C1541.207275,793.416809 1538.075684,794.008850 1535.243652,791.425415 
z"/>
<path fill="#2887C7" opacity="1.000000" stroke="none" 
	d="
M1775.832031,662.708130 
	C1772.538818,664.758362 1769.106934,662.940369 1765.669434,662.948364 
	C1726.936401,663.037903 1688.202759,663.037964 1649.469727,662.946533 
	C1646.021606,662.938416 1642.995605,664.259216 1639.369385,664.951782 
	C1643.963257,657.987000 1643.933472,658.010620 1638.476807,651.116394 
	C1612.812378,618.689697 1587.164307,586.250122 1561.523193,553.804932 
	C1561.012817,553.159180 1560.659424,552.389343 1560.089844,551.370728 
	C1559.683472,548.250427 1561.407593,547.254211 1563.790894,546.879211 
	C1566.097168,546.516296 1568.425781,546.541748 1570.749390,546.539917 
	C1603.294067,546.514587 1635.838623,546.518311 1668.383301,546.536926 
	C1672.036865,546.539001 1675.723633,546.401794 1679.423584,548.741943 
	C1688.103394,561.417542 1696.482666,573.742432 1704.555786,586.264771 
	C1706.917969,589.928711 1708.178589,589.560242 1710.449219,586.300415 
	C1720.427124,571.975647 1730.574219,557.768616 1740.886963,543.266968 
	C1743.817139,541.143860 1746.853638,540.559448 1750.087524,540.554993 
	C1784.467773,540.507385 1818.848022,540.459473 1853.227905,540.628479 
	C1856.164429,540.642883 1859.847778,539.764160 1861.064209,544.516663 
	C1842.057251,568.474182 1823.116943,591.940369 1804.157104,615.390869 
	C1794.728149,627.052917 1785.245728,638.671936 1775.822144,650.338257 
	C1771.015625,656.288635 1771.050049,656.316406 1775.832031,662.708130 
z"/>
<path fill="#1F83C6" opacity="1.000000" stroke="none" 
	d="
M1679.716187,548.709045 
	C1642.623291,549.011963 1605.405762,549.003296 1568.188110,549.008484 
	C1565.545166,549.008850 1562.827148,548.745361 1560.246338,550.815308 
	C1544.733276,531.885254 1529.507690,512.715881 1514.310547,493.523834 
	C1506.141357,483.207031 1498.004883,472.864105 1489.902100,462.495117 
	C1489.040405,461.392548 1487.235962,460.405151 1488.077637,458.749969 
	C1488.750732,457.426392 1490.482666,457.962677 1491.754028,457.961914 
	C1532.905029,457.937103 1574.056152,457.963776 1615.207031,457.896881 
	C1618.193115,457.892029 1620.140137,458.895538 1621.794922,461.395203 
	C1641.014526,490.427521 1660.313477,519.407166 1679.716187,548.709045 
z"/>
<path fill="#4596CD" opacity="1.000000" stroke="none" 
	d="
M1534.716675,791.188965 
	C1575.405273,790.998291 1615.822754,790.995789 1656.240356,791.007202 
	C1659.056885,791.007996 1661.911255,790.745850 1665.044678,792.032593 
	C1654.872803,807.436523 1644.233398,822.646790 1633.689575,837.923096 
	C1627.273071,847.219360 1620.922119,856.563477 1614.717651,866.001770 
	C1612.799683,868.919373 1610.648926,870.263245 1607.016602,870.254028 
	C1563.070923,870.142456 1519.124756,870.188904 1475.178711,870.152405 
	C1473.776123,870.151245 1471.813843,870.887390 1471.094849,869.304565 
	C1470.391113,867.755798 1472.163330,866.681580 1473.066528,865.587708 
	C1493.505615,840.834900 1513.978760,816.110413 1534.716675,791.188965 
z"/>
<path fill="#1E82C5" opacity="1.000000" stroke="none" 
	d="
M1861.275879,544.820007 
	C1859.061157,542.487549 1856.251221,543.018188 1853.648682,543.016785 
	C1816.442749,542.996277 1779.236938,543.006287 1741.572510,543.012024 
	C1757.260620,519.980286 1773.405396,496.944153 1789.556641,473.912445 
	C1791.659546,470.913635 1794.141968,468.121033 1795.838745,464.910614 
	C1798.754761,459.392517 1802.876709,457.734253 1809.129028,457.783325 
	C1847.588867,458.084991 1886.052490,457.934540 1924.514771,457.934570 
	C1926.489014,457.934570 1928.463257,457.934570 1932.080078,457.934570 
	C1907.992676,487.539612 1884.769409,516.082581 1861.275879,544.820007 
z"/>
<path fill="#4596CD" opacity="1.000000" stroke="none" 
	d="
M1756.047852,794.493103 
	C1757.571045,790.366272 1761.028320,791.026978 1764.098633,791.024536 
	C1802.020142,790.994446 1839.941528,791.012817 1878.313965,791.023315 
	C1885.954712,799.951111 1893.139038,808.878784 1900.335938,817.796387 
	C1912.773193,833.207092 1925.218384,848.611511 1937.659790,864.018860 
	C1938.287964,864.796692 1938.967163,865.540527 1939.524048,866.366699 
	C1940.145874,867.289001 1941.468872,868.091064 1940.896973,869.349304 
	C1940.310181,870.640198 1938.841064,870.155090 1937.753540,870.155762 
	C1896.093994,870.180664 1854.434448,870.156982 1812.774902,870.211487 
	C1810.121338,870.214966 1808.487061,869.130432 1807.025513,867.047729 
	C1790.108887,842.942566 1773.136108,818.876770 1756.047852,794.493103 
z"/>
<path fill="#378FCA" opacity="1.000000" stroke="none" 
	d="
M108.186066,772.413574 
	C114.278648,757.507019 120.549156,742.998230 126.988609,728.564880 
	C140.825256,697.551514 154.749039,666.577087 168.837921,635.297607 
	C171.655136,632.327209 174.883133,631.534058 178.552994,631.532898 
	C208.857376,631.523193 239.161728,631.496216 269.466034,631.572205 
	C272.472748,631.579712 275.500641,631.636292 278.276428,634.127686 
	C279.868683,636.220459 279.098175,637.860107 278.422089,639.616211 
	C269.959412,661.597412 261.173584,683.451050 252.518021,705.356018 
	C252.090729,706.437378 251.636322,707.491638 251.443710,708.662842 
	C251.038513,711.126465 251.711792,712.421021 254.508957,712.361816 
	C259.769562,712.250549 264.998047,712.703247 270.291718,711.845215 
	C276.470795,710.843567 282.795593,711.468384 289.051941,711.456482 
	C314.245789,711.408630 339.440186,711.719482 364.633636,711.285034 
	C371.626373,711.164429 372.895020,709.371582 370.388611,703.134155 
	C361.977539,682.202515 353.916595,661.131775 345.417175,640.235413 
	C344.766479,638.635620 344.225372,637.132507 345.272614,635.088440 
	C347.374481,632.102417 350.134247,631.631104 353.027679,631.617004 
	C383.577759,631.467529 414.127899,631.480042 444.678131,631.597351 
	C447.049377,631.606506 449.217621,632.195923 451.618530,633.739868 
	C461.162781,654.102966 470.328125,674.213013 479.381287,694.373413 
	C490.888336,719.998413 502.304535,745.664246 513.824707,771.663696 
	C512.848450,773.863098 511.055542,774.159912 509.183228,774.304199 
	C506.523346,774.509094 503.858368,774.470337 501.194885,774.470459 
	C374.316681,774.477356 247.438446,774.488403 120.560257,774.422974 
	C116.500885,774.420898 112.207001,775.424377 108.186066,772.413574 
z"/>
<path fill="#2485C6" opacity="1.000000" stroke="none" 
	d="
M278.360474,636.136719 
	C275.444611,634.148071 272.473511,633.997864 269.451355,633.998596 
	C239.226120,634.005920 209.000809,633.976013 178.775726,634.044617 
	C175.810852,634.051392 172.847305,634.645386 169.460938,634.987671 
	C176.542908,617.951843 183.983841,600.867004 191.563980,583.844238 
	C209.238220,544.153015 227.048935,504.522339 244.594528,464.774536 
	C246.516373,460.420776 248.933548,459.001465 253.594467,459.023315 
	C291.057678,459.199066 328.523376,459.277039 365.984833,458.965027 
	C372.075073,458.914307 374.983246,460.712952 377.471344,466.330444 
	C401.741058,521.125000 426.339630,575.773926 450.837708,630.467407 
	C451.244995,631.376709 451.566406,632.324463 451.987610,633.612427 
	C448.758636,635.086060 445.463348,633.928040 442.171082,633.940063 
	C413.435333,634.044617 384.699066,634.014954 355.963013,633.981018 
	C352.603668,633.977051 349.318695,634.116211 345.895111,635.895508 
	C342.759125,635.743835 342.339325,633.369812 341.623291,631.435608 
	C332.948273,608.001465 323.087555,585.037231 314.019806,561.758972 
	C313.570892,560.606445 313.195038,559.192932 311.433136,558.546448 
	C308.081360,563.070801 306.646606,568.553101 304.616577,573.687866 
	C296.588715,593.993896 288.674072,614.344482 280.365723,634.538879 
	C280.027679,635.360596 279.580811,635.978271 278.360474,636.136719 
z"/>
<path fill="#4495CD" opacity="1.000000" stroke="none" 
	d="
M107.711494,772.250122 
	C242.943863,771.990662 377.956146,771.999817 513.428955,772.011963 
	C521.766724,789.457031 529.643982,806.899048 537.616333,824.670410 
	C535.312805,828.288086 531.712769,827.399048 528.531311,827.410889 
	C497.163177,827.527649 465.794525,827.493835 434.426239,827.434509 
	C430.826019,827.427673 427.120972,828.200562 423.205994,826.354126 
	C416.816925,813.277344 411.613586,800.146729 406.569550,786.960266 
	C405.121887,783.175842 403.209503,781.603088 398.954041,781.613159 
	C340.336731,781.751648 281.718964,781.748108 223.101639,781.617188 
	C218.986420,781.607971 216.683197,782.916016 215.174255,786.670593 
	C205.133850,811.653992 194.791458,836.518372 185.020889,861.605957 
	C182.792847,867.326843 180.029144,869.208679 173.844971,869.146240 
	C139.543839,868.800110 105.237404,868.984619 70.932785,868.976135 
	C64.288277,868.974487 64.282745,868.948853 67.067062,862.734131 
	C80.540070,832.661499 94.016335,802.590332 107.711494,772.250122 
z"/>
<path fill="#4495CD" opacity="1.000000" stroke="none" 
	d="
M422.860809,826.448120 
	C426.003296,825.050110 429.312195,824.984802 432.648743,824.986877 
	C467.371063,825.008118 502.093353,825.000000 537.263550,824.999878 
	C543.670044,838.204224 549.579224,851.431396 555.623413,864.596680 
	C557.055176,867.715271 556.804993,869.028442 552.940552,869.019958 
	C516.460083,868.939636 479.979370,868.941650 443.498932,869.022217 
	C440.594971,869.028625 439.412750,867.651184 438.455902,865.253967 
	C433.333069,852.419556 428.115356,839.623169 422.860809,826.448120 
z"/>
<path fill="#4093CC" opacity="1.000000" stroke="none" 
	d="
M1391.315674,738.780884 
	C1410.489990,780.827576 1429.208374,822.621948 1448.056885,864.357422 
	C1449.878662,868.391357 1448.742676,869.061584 1444.803711,869.050293 
	C1408.989868,868.947449 1373.175537,868.930664 1337.362061,869.074707 
	C1333.511597,869.090210 1331.828125,867.622498 1330.460815,864.233582 
	C1320.119019,838.598816 1309.507080,813.072632 1299.233643,787.410889 
	C1297.566650,783.246826 1295.559082,781.602234 1290.899536,781.615601 
	C1232.598022,781.782410 1174.295898,781.777161 1115.994263,781.623962 
	C1111.403809,781.611877 1109.279541,783.120911 1107.590454,787.352478 
	C1097.528687,812.560730 1087.022705,837.592041 1077.013062,862.820435 
	C1075.092285,867.661377 1072.608032,869.149475 1067.484131,869.114563 
	C1032.671143,868.877747 997.855774,868.994507 963.041199,868.986877 
	C956.755371,868.985474 956.741943,868.957886 959.166809,863.537598 
	C977.527710,822.495728 995.894348,781.456421 1014.460327,740.138672 
	C1016.489319,738.190796 1018.711731,737.675720 1021.108276,737.607666 
	C1023.607361,737.536682 1026.106323,737.526794 1028.605713,737.526672 
	C1145.580078,737.523438 1262.554443,737.517761 1379.528809,737.552368 
	C1383.327881,737.553528 1387.209961,736.992798 1391.315674,738.780884 
z"/>
<path fill="#338DCA" opacity="1.000000" stroke="none" 
	d="
M1391.646973,738.714478 
	C1389.319092,739.754272 1386.856934,740.011353 1384.336792,740.010986 
	C1262.274658,739.992676 1140.212524,739.991394 1018.150330,739.984985 
	C1017.318115,739.984985 1016.485840,739.941040 1015.157471,739.889282 
	C1019.524414,728.748169 1024.326904,717.608215 1029.264893,706.528687 
	C1036.566406,690.146057 1043.964111,673.806274 1051.533203,657.179871 
	C1054.453247,653.143921 1058.280518,652.487427 1062.646851,652.496277 
	C1093.022827,652.557983 1123.399048,652.496338 1153.775269,652.570129 
	C1156.401123,652.576477 1159.113281,652.324707 1161.850586,654.097168 
	C1164.330566,656.837097 1163.475830,659.303284 1162.388916,661.839722 
	C1156.515137,675.547363 1150.909546,689.363220 1145.587036,703.295898 
	C1143.025391,710.001160 1144.611694,712.708435 1152.052979,712.337524 
	C1183.487183,710.770691 1214.936279,711.817993 1246.376099,711.505615 
	C1250.448730,711.465149 1254.525146,711.533020 1258.596313,711.500244 
	C1263.997681,711.456848 1265.415283,709.232788 1263.421631,704.250366 
	C1253.378906,679.151978 1243.343140,654.050781 1233.315063,628.946594 
	C1231.285278,623.865295 1229.630615,618.634705 1227.212646,613.707397 
	C1226.427612,612.107788 1226.242798,610.529968 1227.937500,608.813965 
	C1230.979004,607.274658 1233.851196,607.565552 1236.652588,607.559814 
	C1265.601196,607.500732 1294.549927,607.507751 1323.498535,607.551086 
	C1326.800537,607.556030 1330.206543,607.244019 1333.496582,609.745544 
	C1346.212158,637.312805 1358.529785,664.599487 1370.803589,691.905884 
	C1377.759155,707.380310 1384.642456,722.887146 1391.646973,738.714478 
z"/>
<path fill="#2284C6" opacity="1.000000" stroke="none" 
	d="
M1333.839600,609.667847 
	C1298.813232,610.021362 1263.713501,610.024841 1228.122070,610.036011 
	C1225.405640,610.129028 1225.118408,608.376282 1224.466919,606.845276 
	C1218.437256,592.673401 1213.403564,578.108765 1207.507446,563.884644 
	C1207.318726,563.429382 1207.239624,562.920044 1206.991089,562.487244 
	C1206.187500,561.088379 1205.793823,558.972534 1203.832520,559.053406 
	C1202.058594,559.126465 1202.072144,561.282043 1201.510254,562.528076 
	C1198.651367,568.866760 1196.531372,575.506409 1193.840332,581.920105 
	C1193.107422,583.666809 1192.577515,585.437317 1189.758057,585.147156 
	C1185.072510,582.923401 1180.521851,582.422302 1175.777100,582.437317 
	C1151.616333,582.514038 1127.455078,582.478516 1103.294067,582.468506 
	C1098.788208,582.466675 1094.286621,582.386108 1089.993530,584.120544 
	C1088.384766,584.770508 1086.760620,584.970154 1085.028809,583.322998 
	C1092.475830,565.412415 1100.143311,547.868835 1107.908447,530.368530 
	C1117.635132,508.447021 1127.539429,486.603546 1137.127686,464.621979 
	C1138.927734,460.495239 1141.211792,458.994507 1145.752441,459.015167 
	C1184.232300,459.190186 1222.713257,459.129852 1261.193970,459.088379 
	C1264.348999,459.084961 1266.817871,459.313782 1268.395996,462.862762 
	C1289.983276,511.407196 1311.710693,559.889404 1333.401611,608.387756 
	C1333.537476,608.691406 1333.645264,609.007568 1333.839600,609.667847 
z"/>
<path fill="#2C89C8" opacity="1.000000" stroke="none" 
	d="
M1084.555176,583.202026 
	C1096.592285,578.039490 1109.017456,580.266418 1121.195435,580.082031 
	C1141.183350,579.779297 1161.179810,580.077820 1181.171143,579.931763 
	C1184.934570,579.904297 1188.029663,580.686523 1190.748169,583.811096 
	C1192.973755,586.110840 1191.435059,588.079407 1190.680054,589.956238 
	C1182.455078,610.403198 1174.569580,630.984131 1166.367188,651.439636 
	C1165.692261,653.122742 1165.063354,654.878845 1163.058594,656.052612 
	C1160.161987,655.131165 1157.525146,654.992249 1154.850220,654.993347 
	C1123.636353,655.006653 1092.422363,655.026550 1061.208618,654.961853 
	C1058.138428,654.955505 1055.294678,655.519043 1052.139404,656.829834 
	C1059.729736,638.796326 1067.697632,620.673828 1075.707031,602.569702 
	C1078.534180,596.179138 1081.462769,589.833435 1084.555176,583.202026 
z"/>
<path fill="#12517A" opacity="1.000000" stroke="none" 
	d="
M277.944580,636.398315 
	C288.321503,610.230286 298.631836,584.421204 308.951630,558.615906 
	C309.675812,556.805054 310.470306,555.022278 311.763275,551.974365 
	C323.214844,580.600647 334.193634,608.045105 345.341583,635.767944 
	C354.819550,659.579651 364.136749,683.109680 373.431519,706.648621 
	C375.861450,712.802429 375.630585,713.158936 369.145752,713.172668 
	C339.000793,713.236450 308.855682,713.247070 278.710846,713.341675 
	C270.221130,713.368286 261.732544,713.685059 253.242630,713.735596 
	C247.884537,713.767517 247.749207,713.495056 249.764359,708.355103 
	C259.122925,684.484253 268.505951,660.622925 277.944580,636.398315 
z"/>
<path fill="#12517A" opacity="1.000000" stroke="none" 
	d="
M1162.559814,656.516357 
	C1172.092163,632.341309 1181.503662,608.542908 1190.978638,584.377563 
	C1195.207031,573.935181 1199.372070,563.859802 1203.536987,553.784363 
	C1203.987305,553.699768 1204.437622,553.615173 1204.887939,553.530579 
	C1212.337280,572.187927 1219.786621,590.845337 1227.433105,609.773193 
	C1237.315796,634.504028 1246.999390,658.965210 1256.687988,683.424255 
	C1259.877319,691.475769 1263.119995,699.506409 1266.262695,707.576111 
	C1268.354370,712.947144 1268.218628,713.140808 1262.487183,713.154297 
	C1233.667236,713.222290 1204.847046,713.338684 1176.027466,713.259399 
	C1166.036621,713.231934 1156.058228,714.360352 1146.063965,713.494202 
	C1140.683716,713.027954 1140.356567,712.538696 1142.396851,707.385620 
	C1149.062866,690.548950 1155.756226,673.723083 1162.559814,656.516357 
z"/>
<path fill="#f9f9f9" opacity="1.000000" stroke="none" 
	d="
M369.147888,709.601379 
	C331.254669,710.271606 293.579010,709.496643 255.456955,710.924011 
	C253.419525,709.201599 254.541367,707.552002 255.148148,706.000916 
	C263.545197,684.536438 272.042358,663.111450 280.514709,641.676575 
	C289.847717,618.064270 299.129120,594.431335 308.512268,570.838806 
	C309.133820,569.276062 309.257782,566.891602 311.530365,566.850464 
	C314.050781,566.804810 314.245819,569.284729 314.946167,571.019775 
	C332.914703,615.535278 350.339539,660.268433 368.409149,704.744019 
	C368.966370,706.115417 369.863953,707.588867 369.147888,709.601379 
z"/>
<path fill="#8793A0" opacity="1.000000" stroke="none" 
	d="
M369.173950,710.116821 
	C361.615692,691.868103 354.317963,673.791504 347.004547,655.721252 
	C340.441345,639.504761 333.467987,623.440125 327.421600,607.033569 
	C323.153992,595.453735 318.361969,584.096863 313.979950,572.572632 
	C313.349396,570.914368 312.572723,569.311707 311.484406,566.812317 
	C304.470947,587.145569 296.443604,606.146912 288.823883,625.291260 
	C278.932648,650.142944 269.406860,675.152527 259.058868,699.826294 
	C257.632996,703.226135 256.370728,706.694519 255.011368,710.502563 
	C251.370102,711.283936 252.165573,709.279053 252.977829,707.226318 
	C256.836090,697.476196 260.681458,687.720886 264.534607,677.968689 
	C279.580566,639.887939 294.626801,601.807312 309.679047,563.729004 
	C310.161682,562.508057 310.710846,561.313477 311.252960,560.050842 
	C313.332336,560.820312 313.332733,562.724060 313.895844,564.135254 
	C332.710388,611.286255 351.490845,658.450928 370.130249,705.671265 
	C370.597931,706.856140 374.142914,709.511719 369.173950,710.116821 
z"/>
<path fill="#f9f9f9" opacity="1.000000" stroke="none" 
	d="
M1261.294189,709.599731 
	C1237.393188,709.932800 1213.787109,710.097900 1190.182495,709.976624 
	C1176.081055,709.904175 1162.036987,711.830383 1147.457764,710.925537 
	C1145.939331,706.671753 1148.691528,703.448303 1150.046875,699.964355 
	C1164.931152,661.700317 1180.169800,623.575134 1195.163086,585.353394 
	C1197.012329,580.639160 1198.941162,575.956177 1200.776611,571.235779 
	C1201.398804,569.635620 1201.925659,567.719421 1204.031128,567.551025 
	C1206.321899,567.367737 1206.813599,569.330505 1207.471069,570.963440 
	C1222.708374,608.805481 1237.552002,646.804382 1252.753052,684.661072 
	C1255.560791,691.653687 1258.563721,698.571533 1261.017578,705.708252 
	C1261.436890,706.927917 1262.056152,707.998962 1261.294189,709.599731 
z"/>
<path fill="#8793A0" opacity="1.000000" stroke="none" 
	d="
M1261.305664,710.005371 
	C1253.118774,690.306274 1244.888794,670.855957 1237.461426,651.103882 
	C1230.558716,632.747681 1223.041138,614.643860 1215.953979,596.366333 
	C1212.325317,587.008179 1208.471069,577.737610 1204.470825,567.812500 
	C1200.555054,574.180176 1198.660645,580.796692 1196.140381,587.069641 
	C1183.468140,618.609802 1171.086548,650.266602 1158.586426,681.875916 
	C1154.844727,691.337524 1151.050049,700.778198 1147.135132,710.552368 
	C1142.664429,710.906982 1145.140381,708.285278 1145.657959,706.929016 
	C1149.277710,697.442749 1153.063843,688.020142 1156.791382,678.575012 
	C1171.640015,640.949707 1186.484741,603.322815 1201.340454,565.700256 
	C1202.066772,563.860901 1202.882690,562.057007 1203.745361,560.028564 
	C1205.568115,560.770935 1205.659668,562.379883 1206.159424,563.632690 
	C1225.034790,610.943237 1243.906372,658.255249 1262.649048,705.618347 
	C1263.138062,706.853699 1266.447388,709.720154 1261.305664,710.005371 
z"/>
</svg>