<svg xmlns="http://www.w3.org/2000/svg" width="80" height="80" viewBox="0 0 256 244" preserveAspectRatio="xMidYMid" xmlns:v="https://vecta.io/nano"><defs><linearGradient x1="49.9972467%" y1="-19.5160457%" x2="49.9972467%" y2="129.625092%" id="A"><stop stop-color="#0994dc" offset="0%"/><stop stop-color="#66cef5" offset="35.000601%"/><stop stop-color="#66cef5" offset="35.000601%"/><stop stop-color="#127bca" offset="84.616101%"/></linearGradient><linearGradient x1="50.0007616%" y1="-19.5161868%" x2="50.0007616%" y2="129.624154%" id="B"><stop stop-color="#0e76bc" offset="0%"/><stop stop-color="#36aee8" offset="36.0001%"/><stop stop-color="#36aee8" offset="36.0001%"/><stop stop-color="#00adef" offset="84.616101%"/></linearGradient><linearGradient x1="49.9991979%" y1="110.921751%" x2="49.9991979%" y2="-6.21395776%" id="C"><stop stop-color="#1c63b7" offset="0%"/><stop stop-color="#33bdf2" offset="50%"/><stop stop-color="#33bdf2" stop-opacity=".42" offset="100%"/></linearGradient><linearGradient x1="50.0009899%" y1="-19.5149993%" x2="50.0009899%" y2="129.627315%" id="D"><stop stop-color="#166ab8" offset="0%"/><stop stop-color="#36aee8" offset="39.999399%"/><stop stop-color="#36aee8" offset="39.999399%"/><stop stop-color="#0798dd" offset="84.616101%"/></linearGradient><linearGradient x1="49.9985422%" y1="-19.5211325%" x2="49.9985422%" y2="129.626892%" id="E"><stop stop-color="#124379" offset="0%"/><stop stop-color="#1487cb" offset="38.9999%"/><stop stop-color="#1487cb" offset="38.9999%"/><stop stop-color="#165197" offset="78.022802%"/></linearGradient><linearGradient x1="0.000304652977%" y1="50.000544%" x2="100.000291%" y2="50.000544%" id="F"><stop stop-color="#33bdf2" stop-opacity=".698" offset="0%"/><stop stop-color="#1dacd8" offset="100%"/></linearGradient><linearGradient x1="50.0095709%" y1="94.6864084%" x2="50.0095709%" y2="-3.02458407%" id="G"><stop stop-color="#136ab4" offset="0%"/><stop stop-color="#59caf5" stop-opacity=".549" offset="60.000002%"/><stop stop-color="#59caf5" stop-opacity=".235" offset="100%"/></linearGradient><linearGradient x1="-0.000760861053%" y1="49.999714%" x2="99.9992241%" y2="49.999714%" id="H"><stop stop-color="#05a1e6" stop-opacity=".247" offset="0%"/><stop stop-color="#05a1e6" offset="100%"/></linearGradient><linearGradient x1="49.9983236%" y1="124.313712%" x2="49.9983236%" y2="-9.42137278%" id="I"><stop stop-color="#318ed5" offset="0%"/><stop stop-color="#38a7e4" offset="100%"/></linearGradient><linearGradient x1="49.99857%" y1="91.1999524%" x2="49.99857%" y2="-76.7854074%" id="J"><stop stop-color="#05a1e6" offset="0%"/><stop stop-color="#05a1e6" stop-opacity=".549" offset="100%"/></linearGradient><linearGradient x1="50.0000694%" y1="100.01049%" x2="50.0000694%" y2="0.0101898204%" id="K"><stop stop-color="#1959a6" offset="0%"/><stop stop-color="#05a1e6" offset="50%"/><stop stop-color="#05a1e6" offset="50%"/><stop stop-color="#7ec5ea" offset="91.758698%"/></linearGradient><linearGradient x1="59.8041209%" y1="94.5677442%" x2="38.4710575%" y2="5.75513731%" id="L"><stop stop-color="#165096" offset="0%"/><stop stop-color="#0d82ca" offset="100%"/></linearGradient><linearGradient x1="49.9946843%" y1="76.9980959%" x2="49.9946843%" y2="-3.29893613%" id="M"><stop stop-color="#05a1e6" offset="0%"/><stop stop-color="#0495d6" offset="87.362701%"/></linearGradient><linearGradient x1="65.2631169%" y1="-4.16143813%" x2="34.2626975%" y2="105.843625%" id="N"><stop stop-color="#38a7e4" stop-opacity=".329" offset="0%"/><stop stop-color="#0e88d3" offset="96.153301%"/></linearGradient><linearGradient x1="50.016714%" y1="-0.295776148%" x2="50.016714%" y2="101.881944%" id="O"><stop stop-color="#168cd4" offset="0%"/><stop stop-color="#1c87cc" offset="50%"/><stop stop-color="#154b8d" offset="100%"/></linearGradient><linearGradient x1="16.6738062%" y1="205.564966%" x2="87.8125992%" y2="-19.8362753%" id="P"><stop stop-color="#97d6ee" offset="0%"/><stop stop-color="#55c1ea" offset="70.329303%"/></linearGradient><linearGradient x1="6.89015912%" y1="6.30038251%" x2="75.7828966%" y2="116.770678%" id="Q"><stop stop-color="#7accec" offset="0%"/><stop stop-color="#3fb7ed" offset="100%"/></linearGradient><linearGradient x1="49.9966533%" y1="6.36281892%" x2="49.9966533%" y2="127.96135%" id="R"><stop stop-color="#1da7e7" offset="0%"/><stop stop-color="#37abe7" stop-opacity="0" offset="100%"/></linearGradient></defs><path d="M214.269 128.005c0-.429-.118-.736-.36-.937-.268-.216-.732-.331-1.378-.331h-.928v2.552h1.121c1.035 0 1.546-.429 1.546-1.284h0zm1.448 5.321h-1.276l-.814-1.795c-.413-.9-.855-1.35-1.337-1.35h-.687v3.145h-1.051v-7.484h2.106c.937 0 1.64.203 2.123.626.409.364.613.83.613 1.411a1.84 1.84 0 0 1-.503 1.308c-.327.364-.798.61-1.399.736v.032c.417.098.834.556 1.239 1.382l.986 1.992v-.004zm2.331-3.669c0-1.472-.503-2.715-1.505-3.701s-2.233-1.48-3.681-1.48c-1.493 0-2.736.495-3.722 1.489s-1.476 2.233-1.476 3.693c0 1.493.511 2.74 1.525 3.734 1.002.994 2.229 1.484 3.672 1.484 1.435 0 2.662-.495 3.672-1.501 1.01-.99 1.513-2.233 1.513-3.717h0zm.707-.032c0 1.653-.568 3.039-1.709 4.155-1.141 1.125-2.54 1.685-4.213 1.685-1.685 0-3.083-.552-4.196-1.636-1.112-1.1-1.664-2.482-1.664-4.159 0-1.64.564-3.018 1.693-4.151s2.536-1.693 4.217-1.693c1.648 0 3.03.54 4.151 1.615 1.149 1.104 1.722 2.495 1.722 4.183h0zM58.799 150.494h-3.627v-20.759c0-1.64.108-3.636.301-5.991h-.082c-.34 1.378-.65 2.376-.924 2.994l-10.543 23.756h-1.767L31.593 126.91c-.298-.659-.609-1.718-.924-3.165h-.079c.111 1.239.173 3.247.173 6.032v20.718h-3.497v-30.913h4.785l9.484 21.556c.716 1.624 1.178 2.859 1.403 3.701h.151l1.48-3.791 9.688-21.466h4.539v30.913h.002zm11.158-.001h-3.525v-22.076h3.525v22.076h0zm.61-29.989c0 .65-.229 1.194-.683 1.64-.446.446-.998.671-1.644.671-.63 0-1.178-.216-1.627-.646s-.671-.986-.671-1.665a2.19 2.19 0 0 1 .671-1.623c.45-.442.998-.654 1.627-.654.646 0 1.198.213 1.644.654a2.18 2.18 0 0 1 .683 1.623h0zm21.421 28.968c-1.693 1.039-3.713 1.554-6.049 1.554-3.165 0-5.713-1.051-7.66-3.149-1.889-2.037-2.842-4.666-2.842-7.889 0-3.616 1.035-6.543 3.12-8.768 2.074-2.229 4.863-3.341 8.372-3.341 1.918 0 3.619.376 5.108 1.121v3.628c-1.648-1.158-3.39-1.73-5.259-1.73-2.249 0-4.077.785-5.496 2.352-1.477 1.603-2.225 3.746-2.225 6.421 0 2.568.683 4.601 2.041 6.102 1.362 1.493 3.174 2.241 5.46 2.241 1.93 0 3.738-.634 5.431-1.898v3.357h0zm16.861-17.473c-.622-.478-1.517-.712-2.699-.712-1.435 0-2.642.642-3.619 1.938-1.108 1.448-1.66 3.452-1.66 6.012v11.255h-3.533v-22.076h3.533v4.552h.085c.52-1.611 1.321-2.851 2.393-3.73 1.002-.802 2.135-1.207 3.382-1.207.941 0 1.64.101 2.118.301v3.664.002zm19.694 7.496c0-2.826-.638-4.985-1.914-6.466-1.239-1.423-2.969-2.135-5.198-2.135-2.196 0-3.959.72-5.276 2.159-1.394 1.538-2.09 3.709-2.09 6.527 0 2.642.663 4.715 2 6.196 1.329 1.489 3.12 2.233 5.366 2.233 2.323 0 4.102-.756 5.32-2.261 1.194-1.472 1.791-3.554 1.791-6.253m3.623-.124c0 3.517-.994 6.343-2.973 8.462-1.987 2.127-4.662 3.19-8.024 3.19-3.313 0-5.951-1.063-7.885-3.19-1.894-2.049-2.846-4.756-2.846-8.122 0-3.84 1.075-6.801 3.235-8.903 1.996-1.951 4.666-2.932 8.012-2.932 3.292 0 5.865 1.026 7.717 3.059 1.836 2.045 2.765 4.858 2.765 8.437m17.524 5.215a5.74 5.74 0 0 1-2.028 4.499c-1.476 1.292-3.505 1.938-6.057 1.938-2.09 0-3.922-.437-5.476-1.329v-3.799c1.73 1.407 3.64 2.115 5.738 2.115 2.797 0 4.2-1.031 4.2-3.084 0-.863-.308-1.579-.928-2.131-.622-.564-1.828-1.239-3.623-2.028-1.849-.81-3.165-1.64-3.942-2.503-.932-1.022-1.403-2.351-1.403-3.987 0-1.832.732-3.358 2.18-4.572s3.317-1.828 5.607-1.828c1.755 0 3.325.343 4.719 1.035v3.558c-1.456-1.051-3.12-1.575-5.01-1.575-1.17 0-2.11.291-2.81.859a2.75 2.75 0 0 0-1.063 2.225c0 .978.298 1.738.888 2.282.523.503 1.636 1.117 3.313 1.832 1.885.789 3.247 1.607 4.077 2.446 1.076 1.059 1.619 2.409 1.619 4.049m21.593-5.094c0-2.826-.638-4.985-1.918-6.466-1.235-1.423-2.969-2.135-5.194-2.135-2.196 0-3.959.72-5.284 2.159-1.39 1.538-2.082 3.709-2.082 6.527 0 2.642.663 4.715 1.988 6.196 1.346 1.489 3.137 2.233 5.378 2.233 2.327 0 4.102-.756 5.32-2.261 1.194-1.472 1.791-3.554 1.791-6.253m3.632-.124c0 3.517-1.002 6.343-2.985 8.462-1.979 2.127-4.654 3.19-8.016 3.19-3.316 0-5.955-1.063-7.889-3.19-1.894-2.049-2.846-4.756-2.846-8.122 0-3.84 1.084-6.801 3.231-8.903 1.996-1.951 4.67-2.932 8.02-2.932 3.292 0 5.861 1.026 7.709 3.059 1.84 2.045 2.777 4.858 2.777 8.437m15.57-18.456c-.695-.384-1.468-.581-2.347-.581-2.474 0-3.701 1.558-3.701 4.679v3.403h5.174v2.994h-5.174v19.082H180.9V131.41h-3.754v-2.994h3.754v-3.578c0-2.43.744-4.335 2.257-5.709 1.297-1.194 2.883-1.787 4.768-1.787 1.092 0 1.943.131 2.56.384v3.19h0zm13.947 29.355c-.834.479-1.947.716-3.321.716-3.852 0-5.778-2.172-5.778-6.515v-13.058h-3.787v-2.998h3.787v-5.386l3.542-1.145v6.531h5.558v2.998h-5.558v12.457c0 1.48.242 2.54.748 3.153.511.634 1.346.945 2.523.945.879 0 1.64-.236 2.286-.712v3.014h0zM13.414 236.653c0 1.73-.617 3.227-1.865 4.49s-2.752 1.894-4.523 1.894c-1.73 0-3.202-.634-4.409-1.894a6.27 6.27 0 0 1-1.807-4.49c0-1.779.601-3.28 1.808-4.523s2.679-1.865 4.409-1.865c1.771 0 3.28.626 4.523 1.889s1.865 2.765 1.865 4.499m79.116 5.084H81.007l-41.833-64.604a29.63 29.63 0 0 1-2.536-5.088h-.344c.298 1.73.45 5.443.45 11.132v58.559h-9.5v-81.052h12.33l40.581 63.586c1.616 2.523 2.719 4.331 3.28 5.419h.226c-.376-2.331-.572-6.306-.572-11.917v-57.087h9.443v81.052h-.001zm60.905 0h-42.958v-81.052h41.093v8.588h-31.6v26.963h29.282v8.593h-29.282v28.317h33.465v8.592h0zm65.159-72.464h-23.347v72.464h-9.496v-72.464h-23.393v-8.592h56.236v8.592h0z"/><g transform="translate(.81)"><path d="M88.499 20.689c9.165 28.026 12.637 78.022 39.436 78.022h0c2.041 0 4.102-.2 6.171-.593h0c-24.362-5.68-27.249-55.133-42.115-80.742h0a123.34 123.34 0 0 0-3.493 3.313" fill="url(#A)"/><path d="M91.992 17.376c14.866 25.609 17.753 75.061 42.115 80.742h0c1.914-.352 3.832-.883 5.754-1.554h0c-21.867-10.715-27.912-58.735-44.794-81.854h0a105.2 105.2 0 0 0-3.075 2.666" fill="url(#B)"/><path d="M113.411 2.145c-2.037 0-4.102.2-6.175.593-5.423 1.022-10.931 3.357-16.485 6.891 1.517 1.497 2.961 3.21 4.318 5.079 5.648-4.687 11.259-8.151 16.85-10.232 2.098-.777 4.188-1.362 6.286-1.746-1.513-.385-3.108-.585-4.793-.585" fill="#14559a"/><path d="M156.931 86.687l6.723-5.893c-9.312-27.896-12.645-78.607-39.633-78.607-1.93 0-3.877.18-5.82.54 24.583 6.114 27.732 59.598 38.729 83.96" fill="url(#C)"/><path d="M118.203 2.728c-1.513-.384-3.108-.585-4.793-.585l10.613.039c-1.93 0-3.877.18-5.82.544" fill="#3092c4"/><path d="M156.46 92.613c-1.055-1.006-2.057-2.11-3.043-3.288-4.54 3.214-9.063 5.652-13.557 7.239a20.88 20.88 0 0 0 5.055 1.722 21.42 21.42 0 0 0 4.306.425c5.043 0 9.03-.597 12.424-2.225-1.869-1.01-3.582-2.319-5.186-3.873" fill="#1969bc"/><path d="M111.917 4.481c22.019 11.516 23.933 63.667 41.502 84.844h0c1.178-.83 2.343-1.709 3.509-2.638h0c-10.997-24.362-14.142-77.85-38.721-83.96h0a38.06 38.06 0 0 0-6.29 1.755" fill="url(#D)"/><path d="M95.067 14.709c16.882 23.119 22.927 71.139 44.794 81.854h0c4.495-1.587 9.018-4.024 13.557-7.239h0c-17.569-21.176-19.483-73.327-41.502-84.844h0c-5.591 2.077-11.201 5.541-16.849 10.228" fill="url(#E)"/><path d="M77.698 20.014c-2.646 5.983-5.349 13.847-8.617 24.113 6.498-9.157 12.976-17.046 19.418-23.438-.887-2.728-1.84-5.243-2.867-7.484-2.634 2.016-5.288 4.286-7.934 6.809" fill="url(#F)"/><path d="M87.979 11.479l-2.343 1.726c1.026 2.241 1.975 4.756 2.863 7.484l3.492-3.313c-1.247-2.143-2.572-4.122-4.012-5.897" fill="#2b74b1"/><path d="M90.751 9.629l-2.773 1.848c1.44 1.775 2.765 3.754 4.016 5.902l3.075-2.671c-1.358-1.869-2.801-3.583-4.319-5.079" fill="#125a9e"/><path d="M240.937.011c-12.453 48.024-38.463 86.598-60.269 96.323h-.041a34.63 34.63 0 0 1-1.178.503c-.053.032-.102.036-.143.056-.115.046-.221.082-.335.128-.053.032-.102.043-.151.062-.184.066-.364.121-.544.193-.078.032-.151.053-.225.079-.082.032-.176.062-.27.088-.082.032-.167.056-.262.092-.078.032-.16.046-.233.079-.16.046-.307.085-.466.141-.066 0-.127.036-.196.053-.098.032-.209.056-.315.085-.074.032-.135.043-.213.059a6.86 6.86 0 0 1-.344.088l-.417.092c.986.364 2.012.548 3.12.548 20.677 0 41.526-37.056 76.022-98.679h-13.545l.005.011z" fill="url(#G)"/><path d="M64.591 4.094c.013 0 .029-.032.037-.032.016 0 .041 0 .049-.032h.026l.335-.128c.029 0 .045 0 .066-.032.029 0 .058-.032.086-.036l.36-.128h.019l.793-.278c.037 0 .074-.032.118-.032l.339-.101c.053-.032.106-.032.155-.049l.344-.101c.049 0 .094-.032.131-.036l1.137-.294c.053 0 .098-.032.155-.036.11-.032.213-.049.331-.066.049-.032.106-.032.164-.049.11-.032.217-.036.335-.062h.078l.691-.128h.139c.11-.032.208-.036.319-.056.061 0 .123-.032.18-.032.102 0 .204-.032.307-.046.053 0 .106 0 .168-.032l.744-.066-2.2-.115c-23.286 0-55.37 43.207-69.822 99.161h2.785c4.625-8.249 8.78-16.052 12.58-23.376C25.663 38.277 46.279 11.249 64.592 4.088" fill="url(#H)"/><path d="M77.699 20.014a96.72 96.72 0 0 1 7.934-6.809l-1.889-3.652c-2.131 2.585-4.077 5.995-6.044 10.461m1.912-15.592c1.521 1.276 2.883 3.031 4.131 5.133l1.202-1.346c-1.73-1.615-3.599-2.94-5.627-3.938a2.69 2.69 0 0 0 .249.118s.032.032.046.032" fill="#0d82ca"/><path d="M15.54 77.915C36.774 36.998 46.834 11.102 64.591 4.092h0C46.282 11.258 25.662 38.286 15.54 77.915" fill="url(#I)"/><path d="M84.943 8.208l-1.202 1.346c.667 1.116 1.288 2.331 1.894 3.652l2.343-1.726c-.961-1.186-1.975-2.286-3.035-3.272" fill="#127bca"/><path d="M25.18 101.107h0c-.131.032-.262.032-.384.046h-.074c-.111 0-.225.032-.327.032h-.053c-.266.032-.528.032-.781.053h-.082c21.491-.601 31.314-11.361 36.189-26.967l9.414-30.161C60.08 56.78 51.038 71.883 41.947 88.802c-4.384 8.155-11.05 11.561-16.768 12.29" fill="url(#J)"/><path d="M25.18 101.099h0c5.717-.728 12.383-4.131 16.768-12.29h0c9.091-16.915 18.138-32.022 27.131-44.692h0c3.272-10.269 5.971-18.129 8.621-24.113h0C59.774 37.067 41.779 65.437 25.18 101.091" fill="url(#K)"/><path d="M15.539 77.916C11.74 85.24 7.585 93.043 2.96 101.292h8.102c1.071-8.192 2.593-16.003 4.478-23.372" fill="#05a1e6"/><path d="M71.454 2.326c-.066 0-.115.032-.172.032h0c-.098.032-.201.032-.303.043h0c-.061 0-.118 0-.18.032h0c-.111.032-.213.036-.319.056h0c-.049 0-.098 0-.139.032h0l-.691.121h0-.078 0c-.118.032-.225.049-.335.066h0c-.058.032-.115.032-.168.045h0c-.11.032-.221.046-.327.066h0c-.058.032-.102.032-.155.036h0l-1.137.294h0c-.041 0-.082.032-.131.039h0l-.343.101h0c-.049.032-.106.032-.155.045h0l-.339.101h0c-.045 0-.082.032-.123.032h0l-.789.278h0 0 0l-.36.124h0c-.049.032-.094.04-.151.062h0c-.115.036-.229.082-.335.124h0c-.041.032-.082.036-.11.053h0c-17.757 7.01-27.818 32.905-49.051 73.822h0c-1.885 7.37-3.411 15.181-4.478 23.372h0 1.137l7.791-.032h0 .188.548.188.053.188.106.074.147.458.458.384.102.675 0c.254-.032.515-.032.781-.053h0 .049 0c.111 0 .221-.032.327-.032h0 .078 0c.118 0 .254-.032.384-.046h0c16.6-35.653 34.594-64.023 52.519-81.085h0c1.971-4.466 3.914-7.877 6.04-10.457h0c-1.243-2.102-2.605-3.861-4.126-5.137h0s-.041 0-.045-.032h0c-.086-.036-.167-.079-.253-.121h0c-.086-.046-.16-.082-.249-.128h0c-.078-.032-.168-.075-.245-.118h0c-.106-.032-.192-.079-.286-.121h0c-.078-.032-.147-.066-.225-.098h0a9.57 9.57 0 0 1-.47-.196h0c-.07-.032-.135-.049-.201-.075h0a6.68 6.68 0 0 1-.352-.141h0c-.058-.032-.123-.039-.188-.062h0l-.487-.167h0-.041 0c-.188-.062-.372-.108-.564-.16h0c-.045-.032-.082-.032-.127-.039h0l-.474-.134h0c-.041 0-.078-.032-.11-.032h0c-.384-.101-.781-.183-1.182-.258h0c-.041 0-.082-.032-.123-.032h0c-.172-.032-.339-.062-.511-.082h0c-.041-.032-.066-.032-.102-.032h0a13.62 13.62 0 0 0-.605-.079h0-.106 0c-.164-.032-.315-.036-.466-.053h0c-.258.032-.503.046-.744.069" fill="url(#L)"/><path d="M192.294 26.598l-10.273 32.766h0c11.21-15.426 22.252-34.832 32.766-57.226h0c-12.265 3.852-18.808 12.67-22.493 24.46" fill="url(#M)"/><path d="M182.377 95.516l-1.709.818c21.806-9.725 47.816-48.299 60.269-96.323h-2.523c-28.611 51.108-37.813 85.322-56.036 95.505" fill="url(#N)"/><path d="M168.138 91.223c4.744-5.791 8.608-15.634 13.884-31.858-6.086 8.359-12.212 15.545-18.342 21.405 0 .032 0 .032-.032.053 1.338 4.008 2.805 7.545 4.478 10.4" fill="#079ae1"/><path d="M168.138 91.223c-1.616 1.971-3.325 3.472-5.227 4.585l-1.268.679c2.008 1.084 4.2 1.808 6.654 2.098h0l1.088.095h.066c.167 0 .344 0 .524.032h.072.536.577.18.409c.066 0 .134 0 .2-.032.128 0 .262 0 .393-.032h.046.147c.134 0 .281-.032.425-.046h.032c.043 0 .088-.032.131-.032.151-.032.308-.046.454-.069h.134l.511-.085h.032.049l1.018-.216c-2.814-1.031-5.169-3.46-7.198-6.92" fill="#1969bc"/><g fill="#1e5cb3"><path d="M127.936 98.711c2.041 0 4.102-.2 6.171-.597 1.914-.347 3.832-.879 5.754-1.55a20.92 20.92 0 0 0 5.051 1.722 21.46 21.46 0 0 0 4.311.425h-21.287 0z"/><path d="M149.223 98.711c5.038 0 9.03-.597 12.42-2.225a18.38 18.38 0 0 0 6.654 2.098h0l1.088.095h.066c.167 0 .344 0 .524.032h.075.536-21.377l.014-.001z"/></g><path d="M170.598 98.711h.581.18.405c.069 0 .134 0 .2-.032.128 0 .262 0 .397-.032h.043.151c.134 0 .281-.032.421-.045h.036c.043 0 .085-.032.128-.032.151-.032.308-.045.454-.069.049 0 .088 0 .141-.032l.511-.082h.032.049l1.018-.216h0c.985.364 2.012.548 3.12.548l-7.86.032-.006-.039z" fill="#1d60b5"/><path d="M163.661 80.823v-.032l-6.723 5.893-3.513 2.638c.985 1.178 1.988 2.282 3.043 3.288 1.603 1.554 3.316 2.863 5.186 3.873l1.264-.679c1.906-1.112 3.615-2.613 5.231-4.584-1.673-2.855-3.141-6.392-4.478-10.4" fill="#175fab"/><path d="M230.422.011h-10.609-1.055 0-.998 0-.039l-2.012.098h0l-.937 2.004h0c-10.514 22.394-21.556 41.8-32.766 57.226h0c-5.272 16.223-9.14 26.067-13.884 31.858h0c2.028 3.46 4.388 5.893 7.194 6.924h0c.082-.032.147-.032.221-.049h0 .045 0c.049 0 .102-.032.155-.032h0c.114-.032.237-.053.352-.088h0c.074-.032.135-.036.209-.059h0c.106-.032.217-.056.315-.082h0c.066-.032.131-.043.196-.056h0c.164-.053.311-.092.466-.141h0c.074-.032.151-.059.233-.079h0c.09-.032.18-.056.262-.095h0c.094-.032.188-.049.27-.085h0c.074-.032.151-.053.221-.082h0c.184-.066.364-.121.548-.193h0c.049 0 .098-.045.151-.056h0c.11-.046.225-.082.335-.131h0c.041-.032.09-.036.143-.053h0l1.178-.503h0 .041 0a33.42 33.42 0 0 0 1.705-.818h0c18.228-10.183 27.429-44.397 56.04-95.505h0-7.991l.009-.004z" fill="url(#O)"/><path d="M72.199 2.257c.045 0 .086 0 .131.032.11 0 .221 0 .331.036h.111l.605.079c.037 0 .07 0 .102.032l.511.085c.037 0 .086.032.127.032l1.178.262c.036 0 .074.032.106.032l.474.134c.049 0 .086.032.131.04l.56.16c.008 0 .019 0 .041.032l.491.167c.066.032.127.046.188.062l.352.144c.066 0 .131.045.2.069l.466.196.229.098a2.02 2.02 0 0 0 .282.121l.249.118.25.128c2.028.998 3.897 2.327 5.627 3.939a18.27 18.27 0 0 1 1.996-1.812c-3.783-2.683-8.069-4.212-13.013-4.212a23.39 23.39 0 0 0-1.726.075" fill="#7dcbec"/><path d="M84.943 8.208c1.059.985 2.073 2.086 3.034 3.272l2.773-1.849c-1.211-1.211-2.487-2.298-3.816-3.235-.691.536-1.354 1.141-1.992 1.812" fill="#5ec5ed"/><path d="M72.198 6.285l1.726.07c4.944 0 9.23-1.53 13.013-4.208 3.991 3.149 8.817 4.249 15.52 4.249H69.998c.748 0 1.48-.045 2.2-.11" fill="url(#P)" transform="matrix(1 0 0 -1 0 8.54097)"/><path d="M102.457 9.63c-6.703 0-11.529-1.1-15.52-4.249 1.325-.937 2.601-2.024 3.812-3.235 5.558 3.533 11.062 5.873 16.489 6.895a33.46 33.46 0 0 0 6.171.589h-10.952 0z" fill="url(#Q)" transform="matrix(1 0 0 -1 0 11.775874)"/><path d="M182.021 59.372l10.277-32.774c3.689-11.794 10.22-20.612 22.485-24.46.324-.659.63-1.338.945-2.004-19.994 1.198-29.339 11.369-34.042 26.432-8.224 26.296-13.205 43.342-18.003 54.204 6.126-5.856 12.253-13.046 18.338-21.397" fill="url(#R)"/><path d="M211.355 91.706h-2.266v7.042h-.924v-7.042h-2.274v-.838h5.464v.838h0zm9.277 7.041h-.92v-5.292l.075-1.53h0c-.095.36-.173.61-.245.769l-2.683 6.053h-.45l-2.691-6.007c-.079-.167-.157-.438-.242-.814h-.032c.032.317.043.83.043 1.542v5.28h-.883v-7.881h1.219l2.417 5.5a7.15 7.15 0 0 1 .356.945h.036l.381-.969 2.466-5.476h1.161v7.881h-.006z"/></g></svg>