<svg width="80px" height="80px" viewBox="0 0 84 101" fill="none" xmlns="http://www.w3.org/2000/svg">
<path d="M14.0776 79.2881L4.39838 81.4964V18.8118L14.0776 21.0243V79.2881Z" fill="#F68536"/>
<path d="M26.1541 82.988L14.0776 86.4199V13.9741L26.1541 17.4019V82.988ZM41.6457 86.7894L26.1541 92.4588V7.93522L41.6457 13.6021V86.7894ZM83.0678 79.4771L41.6457 100.188V0.18811L83.0678 20.8992V79.4771Z" fill="#F68536"/>
<path d="M33.3887 4.31725L41.6457 0.18811V100.188L33.3887 96.0603V4.31725ZM19.7622 11.1297L26.1541 7.93392V92.4423L19.7622 89.2465V11.1297ZM8.98596 16.5186L14.0776 13.9728V86.4034L8.98596 83.856V16.5186ZM4.39839 18.8118L0.245636 20.8882V79.4894L4.39839 81.5645V18.8118Z" fill="#9D5025"/>
</svg>
