<svg xmlns="http://www.w3.org/2000/svg" width="80" height="80" viewBox="0 0 84 101" fill="none" xmlns:v="https://vecta.io/nano"><g fill="#f68536"><path d="M14.078 79.288l-9.679 2.208V18.812l9.679 2.212v58.264z"/><path d="M26.154 82.988L14.078 86.42V13.974l12.077 3.428v65.586zm15.492 3.801l-15.492 5.669V7.935l15.492 5.667v73.187zm41.422-7.312l-41.422 20.711v-100l41.422 20.711v58.578z"/></g><path d="M33.389 4.317L41.646.188v100l-8.257-4.128V4.317zM19.762 11.13l6.392-3.196v84.508l-6.392-3.196V11.13zM8.986 16.519l5.092-2.546v72.431l-5.092-2.547V16.519zm-4.588 2.293L.246 20.888v58.601l4.153 2.075V18.812z" fill="#9d5025"/></svg>