<svg xmlns="http://www.w3.org/2000/svg" width="80" height="80" viewBox="0 0 101 95" fill="none" xmlns:v="https://vecta.io/nano"><path d="M33.995.643h29.591L32.867 91.711c-.157.465-.386.903-.678 1.298a4.69 4.69 0 0 1-1.041 1.028c-.399.286-.839.509-1.306.659a4.73 4.73 0 0 1-1.445.228H5.368c-.748 0-1.485-.178-2.15-.52s-1.24-.837-1.676-1.445a4.72 4.72 0 0 1-.833-2.051c-.111-.74-.044-1.496.195-2.205L29.523 3.852a4.69 4.69 0 0 1 .678-1.298c.291-.395.644-.741 1.041-1.028s.839-.509 1.306-.659A4.73 4.73 0 0 1 33.994.64v.001l.001.001z" fill="url(#A)"/><path d="M88.543 94.923H61.973a4.68 4.68 0 0 1-.885-.084c-.291-.055-.578-.138-.854-.246a4.81 4.81 0 0 1-.793-.401 4.77 4.77 0 0 1-.704-.543L28.586 65.49a2.18 2.18 0 0 1-.637-1.11c-.096-.425-.062-.87.097-1.276s.438-.755.799-1a2.18 2.18 0 0 1 1.224-.376h46.923l11.549 33.197.003-.001z" fill="#0078d4"/><path d="M63.692.643l-20.714 61.09 33.845-.007 11.61 33.197h-26.47c-.274-.002-.548-.028-.818-.076s-.535-.12-.793-.215a4.81 4.81 0 0 1-1.42-.814L38.578 74.822 32.88 91.625a5.02 5.02 0 0 1-.603 1.185 5.06 5.06 0 0 1-2.006 1.709c-.402.19-.828.326-1.266.404H5.382a4.69 4.69 0 0 1-2.171-.525 4.71 4.71 0 0 1-2.503-3.549 4.72 4.72 0 0 1 .234-2.224L29.515 3.916a4.64 4.64 0 0 1 .663-1.323 4.69 4.69 0 0 1 1.041-1.05c.4-.293.845-.52 1.316-.673S33.5.64 33.996.643h29.697-.001z" fill="url(#B)"/><path d="M100.409 88.701a4.73 4.73 0 0 1 .196 2.205c-.111.74-.396 1.443-.831 2.051a4.71 4.71 0 0 1-3.827 1.965h-32.98a4.72 4.72 0 0 0 2.151-.52c.665-.341 1.24-.838 1.676-1.445a4.72 4.72 0 0 0 .833-2.051c.111-.74.044-1.496-.195-2.205L38.813 3.849c-.315-.935-.915-1.747-1.716-2.323-.398-.286-.838-.508-1.304-.658S34.839.643 34.35.643h32.978c.49 0 .976.076 1.444.226s.906.373 1.305.658.749.633 1.04 1.026a4.73 4.73 0 0 1 .676 1.296l28.621 84.852h-.005z" fill="url(#C)"/><defs><linearGradient id="A" x1="44.794" y1="7.631" x2="14.042" y2="98.474" gradientUnits="userSpaceOnUse"><stop stop-color="#114a8b"/><stop offset="1" stop-color="#0669bc"/></linearGradient><linearGradient id="B" x1="54.382" y1="49.959" x2="47.269" y2="52.371" gradientUnits="userSpaceOnUse"><stop stop-opacity=".3"/><stop offset=".1" stop-opacity=".2"/><stop offset=".3" stop-opacity=".1"/><stop offset=".6" stop-opacity=".1"/><stop offset="1" stop-opacity="0"/></linearGradient><linearGradient id="C" x1="50.457" y1="4.981" x2="84.209" y2="94.899" gradientUnits="userSpaceOnUse"><stop stop-color="#3ccbf4"/><stop offset="1" stop-color="#2892df"/></linearGradient></defs></svg>