<svg xmlns="http://www.w3.org/2000/svg" width="80" height="80" viewBox="0 0 90 100" fill="none" xmlns:v="https://vecta.io/nano"><path d="M89.082 29.197c-.001-1.665-.357-3.136-1.077-4.398-.707-1.242-1.767-2.283-3.187-3.105L49.625 1.419c-3.161-1.825-6.226-1.758-9.363.093L5.257 21.689C2.389 23.35.993 25.891.992 29.194l-.004 40.8c0 1.628.342 3.071 1.03 4.315.708 1.279 1.782 2.348 3.235 3.19l35.008 20.177c3.139 1.852 6.204 1.918 9.365.093l35.196-20.275c1.454-.841 2.528-1.911 3.235-3.189.687-1.244 1.03-2.686 1.03-4.315l-.005-40.793z" fill="#a179dc"/><path d="M45.172 49.461L2.018 74.309c.708 1.279 1.782 2.349 3.235 3.19l35.008 20.177c3.139 1.852 6.203 1.918 9.365.093l35.196-20.275c1.454-.841 2.528-1.911 3.235-3.189L45.172 49.461z" fill="#280068"/><path d="M89.082 29.197c-.001-1.665-.357-3.136-1.077-4.398L45.172 49.462l42.885 24.844c.687-1.244 1.029-2.686 1.03-4.315l-.004-40.793z" fill="#390091"/><path d="M70.58 40.173v4.644h4.644v-4.644h2.322v4.644h4.644v2.322h-4.644v4.644h4.644v2.322h-4.644v4.645h-2.322v-4.645H70.58v4.645h-2.322v-4.645h-4.644v-2.322h4.644V47.14h-4.644v-2.322h4.644v-4.644h2.322zm4.644 6.966H70.58v4.645h4.644v-4.645zM45.267 16.848c12.114 0 22.691 6.579 28.356 16.358l-.055-.094-14.253 8.207c-2.808-4.754-7.956-7.963-13.861-8.029l-.186-.001A16.31 16.31 0 0 0 28.96 49.594a16.23 16.23 0 0 0 2.151 8.09c2.811 4.907 8.095 8.216 14.156 8.216 6.099 0 11.413-3.352 14.209-8.311l-.068.119 14.232 8.245c-5.603 9.696-16.035 16.255-28.008 16.386l-.365.002c-12.152 0-22.759-6.62-28.41-16.451-2.759-4.799-4.337-10.363-4.337-16.296 0-18.085 14.661-32.746 32.746-32.746h0z" fill="#fff"/></svg>