<svg xmlns="http://www.w3.org/2000/svg" width="80" height="80" viewBox="0 0 89 100" fill="none" xmlns:v="https://vecta.io/nano"><path d="M88.192 0l-8.033 89.99L44.051 100 8.041 90.004.017 0h88.175z" fill="#264de4"/><path d="M73.282 84.259l6.865-76.9H44.105v84.989l29.177-8.089z" fill="#2965f1"/><path d="M18.413 40.74l.989 11.039h24.702V40.74H18.413zm25.692-22.342h-.038-27.641l1.003 11.039h26.676V18.398zm0 62.495V69.408l-.048.013-12.294-3.32-.786-8.804h-5.974-5.107l1.547 17.332 22.612 6.277.051-.014z" fill="#ebebeb"/><path d="M57.659 51.779l-1.281 14.316-12.312 3.323v11.484l22.63-6.272.166-1.865 2.594-29.061.269-2.964 1.993-22.342H44.066v11.039h15.555L58.616 40.74h-14.55v11.038h13.593z" fill="#fff"/></svg>