<svg xmlns="http://www.w3.org/2000/svg" width="80" height="80" viewBox="0 0 68 100" fill="none" xmlns:v="https://vecta.io/nano"><path d="M17.162 100c9.2 0 16.667-7.467 16.667-16.667V66.667H17.162c-9.2 0-16.667 7.467-16.667 16.667S7.962 100 17.162 100z" fill="#0acf83"/><path d="M.495 50c0-9.2 7.467-16.667 16.667-16.667h16.667v33.333H17.162C7.962 66.667.495 59.2.495 50z" fill="#a259ff"/><path d="M.495 16.667C.495 7.467 7.962 0 17.162 0h16.667v33.333H17.162c-9.2 0-16.667-7.467-16.667-16.667z" fill="#f24e1e"/><path d="M33.828 0h16.667c9.2 0 16.667 7.467 16.667 16.667s-7.467 16.667-16.667 16.667H33.828V0z" fill="#ff7262"/><path d="M67.162 50c0 9.2-7.467 16.667-16.667 16.667S33.828 59.2 33.828 50s7.467-16.667 16.667-16.667S67.162 40.8 67.162 50z" fill="#1abcfe"/></svg>