<svg xmlns="http://www.w3.org/2000/svg" width="80" height="80" viewBox="0 0 101 101" fill="none" xmlns:v="https://vecta.io/nano"><path d="M98.666 45.733L55.005 2.074a6.44 6.44 0 0 0-9.107 0l-9.066 9.066 11.501 11.501c2.673-.903 5.737-.297 7.868 1.833 2.141 2.144 2.742 5.235 1.817 7.916l11.084 11.084c2.682-.924 5.776-.326 7.918 1.819a7.66 7.66 0 0 1 0 10.836c-2.994 2.995-7.844 2.995-10.839 0-2.252-2.254-2.808-5.561-1.668-8.334L54.176 37.46l-.001 27.202c.749.37 1.434.86 2.027 1.449 2.993 2.992 2.993 7.842 0 10.839s-7.846 2.993-10.836 0-2.993-7.846 0-10.838a7.68 7.68 0 0 1 2.508-1.672V36.983a7.57 7.57 0 0 1-2.508-1.672c-2.268-2.265-2.813-5.593-1.651-8.377L32.377 15.595 2.439 45.531c-2.516 2.517-2.516 6.595 0 9.11L46.101 98.3c2.514 2.515 6.591 2.515 9.108 0l43.457-43.457c2.515-2.516 2.515-6.596 0-9.111" fill="#de4c36"/></svg>