<svg xmlns="http://www.w3.org/2000/svg" width="80" height="80" viewBox="0 0 101 98" fill="#161614" xmlns:v="https://vecta.io/nano"><path d="M50.276.422c-27.611 0-50 22.385-50 50 0 22.092 14.327 40.834 34.193 47.445 2.499.463 3.416-1.085 3.416-2.405l-.068-9.309c-13.911 3.025-16.846-5.899-16.846-5.899-2.274-5.779-5.552-7.316-5.552-7.316-4.536-3.103.342-3.04.342-3.04 5.021.353 7.665 5.153 7.665 5.153 4.459 7.644 11.697 5.434 14.55 4.157.449-3.232 1.745-5.437 3.174-6.686-11.105-1.265-22.78-5.552-22.78-24.71 0-5.459 1.953-9.919 5.152-13.421-.519-1.26-2.23-6.345.484-13.232 0 0 4.199-1.344 13.754 5.125 3.988-1.108 8.266-1.663 12.515-1.682 4.249.019 8.53.574 12.526 1.682 9.543-6.469 13.736-5.125 13.736-5.125 2.722 6.887 1.009 11.973.49 13.232 3.206 3.501 5.146 7.962 5.146 13.421 0 19.204-11.697 23.433-22.831 24.671 1.793 1.552 3.391 4.595 3.391 9.259l-.058 13.721c0 1.331.9 2.89 3.435 2.399 19.856-6.619 34.164-25.354 34.164-47.439 0-27.615-22.386-50-50-50z"/><path d="M19.003 71.649c-.11.248-.501.323-.857.153-.363-.163-.567-.502-.449-.751.108-.256.499-.327.861-.155.364.163.57.505.445.754zm2.459 2.194c-.238.221-.705.118-1.021-.231-.327-.349-.388-.814-.146-1.039s.698-.118 1.026.231.391.816.141 1.039h0zm1.687 2.808c-.307.213-.808.013-1.117-.431s-.306-.978.007-1.191.804-.022 1.118.42c.306.452.306.985-.007 1.204h0zm2.853 3.252c-.274.302-.858.221-1.285-.191-.437-.403-.559-.975-.284-1.278s.864-.218 1.295.191c.434.402.567.979.274 1.278h0zm3.688 1.098c-.12.391-.683.569-1.249.403-.566-.171-.936-.63-.822-1.026s.682-.58 1.253-.402c.565.171.936.626.818 1.024h0zm4.198.466c.014.412-.466.755-1.061.762-.598.013-1.081-.321-1.088-.726 0-.416.469-.755 1.067-.765s1.081.32 1.081.729zm4.123-.158c.071.402-.342.816-.932.925-.58.106-1.118-.142-1.192-.541-.072-.413.349-.825.928-.933.591-.103 1.12.139 1.196.548z"/></svg>