<svg xmlns="http://www.w3.org/2000/svg" width="80" height="80" viewBox="0 0 75 101" fill="none" xmlns:v="https://vecta.io/nano"><path d="M24.466 77.821s-3.821 2.222 2.72 2.974c7.924.904 11.974.775 20.707-.879 0 0 2.296 1.44 5.502 2.687-19.576 8.39-44.304-.486-28.928-4.782zm-2.392-10.948s-4.286 3.173 2.26 3.85c8.465.873 15.15.945 26.717-1.283 0 0 1.6 1.622 4.116 2.509-23.669 6.921-50.031.546-33.093-5.076z" fill="#5382a1"/><path d="M42.24 48.301c4.824 5.553-1.267 10.551-1.267 10.551s12.248-6.323 6.623-14.24c-5.253-7.383-9.282-11.052 12.528-23.701 0 0-34.234 8.55-17.883 27.39" fill="#e76f00"/><path d="M68.131 85.919s2.828 2.33-3.115 4.133c-11.299 3.423-47.03 4.457-56.956.136-3.568-1.552 3.123-3.706 5.228-4.158 2.195-.476 3.449-.387 3.449-.387-3.968-2.795-25.648 5.489-11.012 7.861 39.913 6.473 72.758-2.915 62.405-7.585zm-41.827-30.39s-18.174 4.317-6.436 5.884c4.956.664 14.837.514 24.04-.258 7.522-.634 15.074-1.983 15.074-1.983s-2.652 1.136-4.571 2.446c-18.456 4.854-54.11 2.596-43.846-2.369 8.681-4.196 15.739-3.72 15.739-3.72h0zm32.603 18.224c18.762-9.749 10.087-19.118 4.032-17.856-1.484.309-2.146.576-2.146.576s.551-.863 1.603-1.236c11.978-4.211 21.19 12.42-3.867 19.007 0 0 .29-.259.377-.491z" fill="#5382a1"/><path d="M47.596.485s10.391 10.394-9.855 26.377c-16.235 12.821-3.702 20.131-.007 28.484-9.477-8.55-16.431-16.077-11.765-23.082C32.817 21.981 51.788 16.995 47.596.485" fill="#e76f00"/><path d="M28.147 100.171c18.009 1.153 45.663-.64 46.318-9.161 0 0-1.259 3.231-14.883 5.796-15.371 2.892-34.328 2.555-45.573.701 0 0 2.302 1.905 14.138 2.664" fill="#5382a1"/></svg>