<svg xmlns="http://www.w3.org/2000/svg" viewBox="0 0 50 50" width="80" height="80" xmlns:v="https://vecta.io/nano"><path d="M29.867 3.008a1.15 1.15 0 0 0-.312.094c-.859.426-1.836 1.691-2.023 1.941-.012.016-.023.031-.031.047-.965 1.445-1.48 3.137-1.5 4.898-.012 1.32.246 2.629.77 3.891 1.219 2.926 3.75 5.348 6.762 6.48l.375.133c.016.008.164.055.188.059l.109.039.473.133c.793.16 1.566.25 2.293.273l.375.004c5.48 0 7.605-3.867 8.313-5.156l.168-.289c.313-.465.195-1.086-.262-1.398a1 1 0 0 0-1.387.266c-1.465 2.152-3.965 2.805-7.43 1.945-.258-.062-.539-.16-.789-.254-.328-.117-.656-.254-.961-.402a10.2 10.2 0 0 1-1.691-1.059c-3.047-2.363-4.238-7.281-2.457-10.121a1 1 0 0 0-.98-1.523zM21.008 5a.98.98 0 0 0-.645.227c-1.512 1.23-3.059 3.246-3.125 3.328-.008.016-.016.027-.027.043-2.734 3.98-2.941 9.645-.523 14.43.379.758.809 1.48 1.266 2.145l.137.195c.387.566.82 1.207 1.375 1.707.191.219.398.43.602.633l.098.102.082.082.637.598c.02.023.043.039.063.059.246.219.496.426.828.688l.09.066c.258.207.52.402.789.594l.082.059c.094.063.188.121.281.188l.094.063.109.07c.199.133.395.254.672.414.18.109.371.219.496.281.055.031.113.063.25.137l.305.16c.016.008.086.039.102.047.199.102.406.199.613.293l.316.141a14.97 14.97 0 0 0 .676.273l.117.043c.008.008.105.043.113.047l.57.195.438.145c.219.074.473.16.75.207 1.363.227 2.688.344 3.941.344l.441-.004c11.039-.242 13.91-9.621 13.938-9.715.137-.473-.086-.977-.531-1.187a1 1 0 0 0-1.254.344c-2.797 4.086-8.086 5.813-13.473 4.391-.25-.062-.492-.133-.793-.23-.051-.016-.094-.031-.176-.062-.176-.055-.348-.113-.543-.187l-.277-.105c-.16-.062-.32-.125-.516-.211l-.129-.059c-.238-.102-.469-.215-.676-.316l-.57-.297c-.129-.062-.242-.133-.418-.238l-.098-.055-.098-.059a6.48 6.48 0 0 1-.422-.27l-.094-.059a1.38 1.38 0 0 1-.094-.066l-.34-.219c-.242-.172-.48-.352-.758-.57l-.109-.09c-2.578-2.059-4.484-4.809-5.379-7.758-.832-2.707-.215-6.25 1.652-9.477.242-.418.152-.949-.219-1.262-.184-.156-.41-.238-.637-.238zM10.004 8c-.238 0-.48.086-.672.258-1.91 1.715-3.34 3.938-3.496 4.191-4.086 5.949-3.297 15.195-.492 20.848.055.117.113.23.172.344l.039.063c.051.113.109.23.129.254a.97.97 0 0 0 .098.18c.047.098.094.184.18.332l.32.551a6.1 6.1 0 0 1 .109.18l.195.313.156.25c.047.074.094.141.125.18.156.242.313.484.484.715.008.012.016.02.023.027l.063.086c.141.203.285.398.414.559l.57.723c.008.008.07.082.074.09l.082.094a16.25 16.25 0 0 0 .539.625c.027.031.055.059.082.09l.543.582.18.172c.148.156.297.309.453.453a1.33 1.33 0 0 0 .074.074l.156.145a12.17 12.17 0 0 0 .531.484c.008.012.148.133.16.141.184.164.367.32.555.473l.957.758.512.371c.063.047.129.094.195.137a.67.67 0 0 0 .078.059l.719.48a22.95 22.95 0 0 0 .844.523l.172.098c.199.117.402.234.594.336.113.063.227.117.324.168.137.074.285.156.512.266a4.68 4.68 0 0 0 .199.098 18.4 18.4 0 0 0 .746.348 1.05 1.05 0 0 0 .094.047l.863.359c.055.023.109.043.121.047l.703.262.145.059.902.293c.059.02.121.039.129.039l.199.063c.242.074.484.152.746.203 1.859.34 3.676.516 5.395.516h.004c14.324 0 18.887-11.527 18.934-11.645a1 1 0 0 0-.453-1.23c-.43-.238-.977-.125-1.281.27-3.676 4.84-10.609 6.637-18.547 4.813-.191-.047-.387-.102-.578-.16l-.375-.113a21.3 21.3 0 0 1-.754-.25c-.004 0-.117-.043-.117-.043-.219-.074-.437-.16-.629-.234l-.219-.086c-.242-.098-.484-.199-.719-.305l-.137-.059-.617-.293c-.016-.008-.176-.086-.191-.09a14.9 14.9 0 0 1-.461-.242l-.816-.437a2.8 2.8 0 0 0-.25-.148l-.75-.465c-.059-.035-.109-.074-.207-.141a15.84 15.84 0 0 1-.586-.395l-.098-.07c-.168-.117-.332-.242-.469-.344-.086-.062-.172-.133-.312-.238l-.367-.285-.219-.18c-.184-.148-.355-.305-.535-.457a.51.51 0 0 0-.07-.059l-.645-.598-.707-.703a20.91 20.91 0 0 1-.539-.57c-.18-.199-.352-.398-.582-.672l-.422-.516a2.67 2.67 0 0 0-.172-.227l-.434-.59c-3.891-5.359-4.906-16.547-1.875-20.645a1 1 0 0 0-.133-1.336.99.99 0 0 0-.668-.258z"/></svg>