<svg xmlns="http://www.w3.org/2000/svg" width="80" height="80" viewBox="0 0 101 101" fill="none" xmlns:v="https://vecta.io/nano"><path d="M100.552.594h-100v100h100v-100z" fill="#f7df1e"/><path d="M67.727 78.72c2.014 3.289 4.635 5.706 9.27 5.706 3.894 0 6.381-1.946 6.381-4.635 0-3.222-2.556-4.364-6.841-6.238l-2.349-1.008c-6.781-2.889-11.286-6.508-11.286-14.159 0-7.048 5.37-12.413 13.762-12.413 5.975 0 10.27 2.079 13.365 7.524l-7.318 4.699c-1.611-2.889-3.349-4.027-6.048-4.027-2.752 0-4.497 1.746-4.497 4.027 0 2.819 1.746 3.96 5.778 5.706l2.349 1.006c7.984 3.424 12.492 6.914 12.492 14.762 0 8.46-6.646 13.095-15.571 13.095-8.727 0-14.365-4.159-17.124-9.609l7.636-4.436zm-33.195.814c1.476 2.619 2.819 4.833 6.048 4.833 3.087 0 5.035-1.208 5.035-5.905V46.51h9.397V78.59c0 9.73-5.705 14.159-14.032 14.159-7.524 0-11.881-3.894-14.097-8.583l7.649-4.631z" fill="#000"/></svg>