<svg xmlns="http://www.w3.org/2000/svg" width="80" height="80" viewBox="0 0 46 101" fill="none" xmlns:v="https://vecta.io/nano"><path d="M23.068 1.164l2.669 5.012a14.98 14.98 0 0 0 2.015 2.506c2.245 2.216 4.337 4.582 6.262 7.081 4.521 5.937 7.571 12.53 9.749 19.661 1.306 4.356 2.015 8.824 2.069 13.343.219 13.508-4.412 25.107-13.749 34.747a39.69 39.69 0 0 1-4.906 4.194c-.925 0-1.362-.709-1.744-1.362-.694-1.211-1.156-2.541-1.362-3.922-.328-1.634-.544-3.269-.437-4.956v-.762c-.075-.162-.891-75.157-.566-75.541z" fill="#599636"/><path d="M23.068.999c-.109-.219-.219-.053-.328.053.053 1.094-.328 2.069-.925 3-.656.925-1.525 1.634-2.397 2.397-4.843 4.193-8.656 9.259-11.709 14.924C3.647 28.997 1.554 37.168.96 45.77c-.272 3.103.981 14.052 1.959 17.211 2.669 8.387 7.462 15.415 13.671 21.514 1.525 1.469 3.156 2.831 4.843 4.14.491 0 .544-.437.656-.762a14.93 14.93 0 0 0 .491-2.125l1.094-8.168L23.068.999z" fill="#6cac48"/><path d="M25.736 91.026c.109-1.25.709-2.287 1.362-3.322-.656-.272-1.144-.812-1.525-1.416-.329-.571-.601-1.173-.812-1.797-.762-2.287-.925-4.687-1.144-7.024v-1.416c-.272.219-.328 2.069-.328 2.344-.159 2.47-.487 4.927-.981 7.353-.162.981-.272 1.959-.875 2.831 0 .109 0 .219.053.381.981 2.887 1.25 5.828 1.416 8.824v1.094c0 1.306-.053 1.031 1.031 1.468.438.163.925.219 1.362.544.328 0 .381-.272.381-.49l-.163-1.797v-5.012c-.053-.875.109-1.744.219-2.562l.003-.003z" fill="#c2bfbf"/></svg>