<svg xmlns="http://www.w3.org/2000/svg" width="80" height="80" viewBox="0 0 101 100" fill="#00546b" xmlns:v="https://vecta.io/nano"><path d="M92.319 77.137c-5.441-.138-9.658.415-13.194 1.933-1.02.414-2.653.414-2.789 1.726.544.552.612 1.45 1.088 2.209.817 1.38 2.244 3.245 3.537 4.212 1.428 1.104 2.857 2.209 4.353 3.175 2.653 1.657 5.646 2.623 8.23 4.281 1.497.966 2.992 2.209 4.489 3.245.748.552 1.224 1.45 2.177 1.795v-.207c-.477-.622-.613-1.519-1.088-2.209-.679-.69-1.36-1.312-2.041-2.002-1.972-2.692-4.42-5.04-7.073-6.972-2.176-1.519-6.938-3.59-7.822-6.145l-.136-.138c1.496-.138 3.264-.69 4.693-1.105 2.312-.622 4.42-.483 6.801-1.105 1.088-.276 2.176-.621 3.264-.967v-.621c-1.224-1.243-2.108-2.9-3.4-4.073-3.469-3.038-7.278-6.007-11.222-8.492-2.109-1.381-4.829-2.279-7.074-3.452-.816-.415-2.176-.622-2.652-1.312-1.225-1.519-1.905-3.521-2.789-5.316-1.972-3.798-3.877-8.009-5.577-12.013-1.224-2.693-1.972-5.385-3.468-7.87C53.62 23.978 46.003 16.867 34.305 9.893c-2.517-1.45-5.509-2.071-8.706-2.83l-5.101-.277c-1.088-.483-2.177-1.795-3.129-2.416C13.493 1.885 3.494-3.5.638 3.611c-1.837 4.487 2.721 8.905 4.284 11.184 1.157 1.588 2.653 3.382 3.469 5.178.476 1.173.612 2.417 1.088 3.659 1.089 3.037 2.108 6.42 3.537 9.251.748 1.45 1.564 2.968 2.516 4.28.544.759 1.496 1.105 1.701 2.347-.952 1.381-1.02 3.452-1.565 5.178-2.448 7.801-1.496 17.467 1.973 23.197 1.088 1.725 3.673 5.524 7.141 4.073 3.061-1.242 2.381-5.178 3.264-8.629.205-.829.069-1.381.476-1.933v.139l2.788 5.73c2.109 3.383 5.781 6.904 8.842 9.251 1.633 1.242 2.925 3.382 4.965 4.142v-.207h-.136c-.408-.621-1.02-.897-1.564-1.381-1.224-1.242-2.585-2.761-3.537-4.142-2.856-3.867-5.373-8.147-7.617-12.565-1.088-2.14-2.041-4.487-2.924-6.627-.409-.829-.409-2.071-1.088-2.485-1.02 1.519-2.516 2.831-3.265 4.694-1.292 2.969-1.428 6.628-1.904 10.424-.272.07-.136 0-.272.139-2.176-.553-2.924-2.831-3.741-4.764-2.041-4.901-2.381-12.772-.612-18.433.476-1.45 2.517-6.006 1.701-7.387-.408-1.312-1.769-2.071-2.517-3.107-.884-1.312-1.837-2.968-2.448-4.418-1.633-3.866-2.449-8.147-4.217-12.013-.816-1.795-2.244-3.659-3.401-5.316-1.292-1.864-2.72-3.176-3.741-5.385-.34-.759-.816-2.002-.272-2.83.136-.552.408-.759.952-.897.884-.76 3.401.207 4.285.621 2.517 1.035 4.625 2.002 6.734 3.452.952.69 1.972 2.002 3.196 2.348h1.428c2.177.483 4.625.138 6.665.759 3.605 1.173 6.869 2.899 9.794 4.764 8.91 5.73 16.255 13.877 21.22 23.611.816 1.587 1.156 3.038 1.904 4.694 1.429 3.383 3.197 6.835 4.625 10.149 1.428 3.244 2.788 6.559 4.829 9.251 1.02 1.449 5.101 2.209 6.937 2.969 1.36.621 3.469 1.174 4.693 1.933 2.312 1.449 4.625 3.107 6.801 4.694 1.088.828 4.489 2.555 4.693 3.935zM22.946 17.142a10.61 10.61 0 0 0-2.788.346v.138h.136c.545 1.105 1.496 1.864 2.176 2.831l1.565 3.314.136-.138c.953-.691 1.428-1.795 1.428-3.452-.408-.483-.476-.966-.816-1.45-.408-.691-1.292-1.036-1.837-1.588z"/></svg>