<svg xmlns="http://www.w3.org/2000/svg" width="80" height="80" viewBox="0 0 92 101" fill="#8cc84b" xmlns:v="https://vecta.io/nano"><path d="M41.734 1.364a8.39 8.39 0 0 1 8.187 0l37.393 21.121c2.344 1.32 3.912 3.929 3.888 6.629v42.371c.017 2.813-1.705 5.483-4.178 6.774l-37.259 21.02c-2.531 1.447-5.825 1.335-8.277-.23l-11.18-6.464c-.761-.454-1.619-.815-2.156-1.553.475-.64 1.325-.72 2.015-1 1.555-.494 2.982-1.288 4.411-2.058.361-.247.802-.152 1.148.069l9.537 5.514c.682.394 1.372-.129 1.955-.454l36.584-20.645c.452-.217.701-.697.664-1.191l.004-41.934a1.31 1.31 0 0 0-.781-1.307L46.558 7.097a1.29 1.29 0 0 0-1.458-.002L7.974 28.031c-.506.23-.845.738-.785 1.301v41.936c-.021.241.032.483.152.694a1.18 1.18 0 0 0 .521.483l9.915 5.599c1.862 1.002 4.148 1.598 6.2.83 1.81-.649 3.079-2.497 3.045-4.419l.013-41.687c-.045-.617.54-1.126 1.14-1.068l4.763.004c.662-.015 1.118.649 1.036 1.271l-.011 41.951c.004 3.727-1.527 7.782-4.974 9.605-4.247 2.2-9.496 1.733-13.691-.376-3.632-1.813-7.098-3.952-10.666-5.894C2.153 76.978.438 74.296.456 71.486V29.114c-.026-2.757 1.604-5.413 4.021-6.713L41.734 1.364zM52.57 30.715c5.417-.349 11.216-.207 16.091 2.462 3.774 2.045 5.866 6.337 5.933 10.53-.105.566-.697.878-1.237.839-1.572-.002-3.144.021-4.715-.011-.667.026-1.054-.589-1.138-1.178-.452-2.006-1.546-3.993-3.434-4.961-2.899-1.451-6.26-1.378-9.421-1.348-2.307.123-4.789.322-6.744 1.679-1.501 1.028-1.957 3.103-1.421 4.774.505 1.2 1.89 1.587 3.023 1.944 6.528 1.707 13.446 1.538 19.85 3.785 2.651.916 5.245 2.697 6.152 5.473 1.187 3.72.667 8.167-1.98 11.154-2.147 2.458-5.273 3.795-8.391 4.522-4.148.925-8.453.948-12.666.538-3.961-.452-8.083-1.492-11.141-4.191-2.615-2.27-3.892-5.808-3.765-9.223.03-.577.604-.979 1.157-.931l4.748.002c.632-.045 1.101.501 1.133 1.097.292 1.912 1.01 3.918 2.677 5.051 3.217 2.075 7.253 1.933 10.936 1.991 3.051-.135 6.477-.176 8.967-2.193 1.314-1.15 1.703-3.075 1.348-4.731-.385-1.398-1.847-2.049-3.103-2.475-6.445-2.039-13.44-1.299-19.822-3.604-2.591-.916-5.097-2.647-6.092-5.309-1.389-3.767-.753-8.427 2.172-11.313 2.851-2.871 6.967-3.976 10.881-4.372h0z"/></svg>