<svg xmlns="http://www.w3.org/2000/svg" width="80" height="80" viewBox="0 0 101 101" fill="none" xmlns:v="https://vecta.io/nano"><style><![CDATA[.B{fill:#ff6c37}.C{fill:#fff}]]></style><path d="M90.334 20.331A50 50 0 0 0 37.667 2.636 50 50 0 0 0 1.168 44.525a50 50 0 0 0 24.736 49.749 50 50 0 0 0 28.293 6.498c9.866-.679 19.309-4.27 27.135-10.317 21.844-16.881 25.875-48.273 9-70.124h.002z" class="B"/><path d="M67.625 32.75l-21.082 21.25-5.958-6.125C61.334 27.125 63.417 29 67.626 32.75h-.002z" class="C"/><path d="M46.542 54.581a.75.75 0 0 1-.5-.208l-6-6a.75.75 0 0 1 0-1.042c20.458-20.458 23.25-19.5 28.083-15.125.081.065.146.147.189.242s.064.197.061.301c.031.203-.047.411-.208.542L47.084 54.374a.79.79 0 0 1-.542.208v-.002zm-4.917-6.708l4.917 4.917 20-20a4.5 4.5 0 0 0-5.917-1c-3.625 1.625-9.458 6.583-19 16.083z" class="B"/><path d="M52.584 59.874l-5.75-5.875 21.083-20.834c5.667 5.542-2.75 14.792-15.333 26.707v.002z" class="C"/><path d="M52.584 60.624c-.184-.015-.36-.087-.5-.208l-5.875-5.75c-.088-.214-.088-.453 0-.667-.062-.175-.062-.367 0-.542l21.083-21.083a.79.79 0 0 1 1.083 0 6.46 6.46 0 0 1 1.582 2.252c.359.855.53 1.778.501 2.706 0 5.625-6.417 12.708-17.333 23.042-.146.144-.338.233-.542.25h.002zm-4.667-6.625l4.708 4.706c8.333-7.875 16.292-16 16.333-21.5a4.75 4.75 0 0 0-1.083-3.208L47.917 53.999z" class="B"/><path d="M40.75 47.999l4.167 4.167c.027.023.048.052.062.085a.25.25 0 0 1 0 .206c-.014.032-.036.061-.062.085l-8.792 1.875c-.178.038-.363.017-.527-.059s-.3-.205-.385-.366-.115-.344-.086-.523.116-.344.248-.469l5.125-5.083s.167 0 .25.083z" class="C"/><path d="M35.917 55.249c-.278-.004-.55-.078-.791-.217s-.442-.337-.584-.575c-.16-.302-.218-.648-.166-.986s.213-.65.458-.889l5.083-5.125a1 1 0 0 1 1.333 0l4.167 4.167a.92.92 0 0 1 .25.917c-.094.328-.369.589-.708.667l-8.792 1.875-.25.166zm4.667-6.333l-4.708 4.708 7.792-1.667-3.084-3.041z" class="B"/><path d="M78.834 21.04a8.09 8.09 0 0 0-10.916-.286 8.08 8.08 0 0 0-1.241 10.848c2.462 3.391 7.105 4.341 10.698 2.187l-5.667-5.667 7.125-7.083z" class="C"/><path d="M73.209 35.706a8.83 8.83 0 0 1-8.056-5.481c-.656-1.602-.828-3.362-.495-5.061s1.157-3.263 2.37-4.499a8.92 8.92 0 0 1 12.5 0c.159.134.25.333.25.542a.72.72 0 0 1-.25.542l-6.75 6.375 5.125 5.042c.083.079.145.178.182.287s.045.225.026.338a.75.75 0 0 1-.333.542c-1.377.861-2.96 1.335-4.583 1.375l.014-.003zm0-16.167c-2.969.016-5.625 1.802-6.739 4.531s-.508 5.872 1.573 7.969a7.29 7.29 0 0 0 8.083 1.542l-4.917-4.917c-.078-.062-.141-.142-.185-.232a.67.67 0 0 1 0-.578c.043-.09.106-.169.185-.232l6.5-6.542c-1.292-.99-2.872-1.532-4.5-1.542v.002z" class="B"/><path d="M78.959 21.165l-7.125 7.083 5.667 5.667c.57-.327 1.101-.719 1.583-1.167 1.485-1.57 2.303-3.656 2.279-5.817a8.33 8.33 0 0 0-2.404-5.766z" class="C"/><path d="M77.375 34.54c-.094.005-.187-.011-.274-.047s-.164-.091-.226-.161l-5.667-5.667a.67.67 0 0 1-.185-.232c-.043-.09-.066-.189-.066-.289s.022-.199.066-.289a.67.67 0 0 1 .185-.232l7.083-6.958a.75.75 0 0 1 .625-.335.75.75 0 0 1 .625.335 8.75 8.75 0 0 1 2.626 6.25 8.75 8.75 0 0 1-2.626 6.25c-.49.52-1.052.969-1.667 1.333a.67.67 0 0 1-.5.042h.002zm-4.583-6.416l4.708 4.708a8.01 8.01 0 0 0 .917-.75c1.384-1.38 2.163-3.253 2.167-5.208.003-1.749-.634-3.439-1.792-4.75l-6 6z" class="B"/><path d="M68.5 33.625c-.564-.53-1.309-.825-2.084-.825s-1.519.295-2.084.825L45.459 52.456l3.125 3.167 19.958-17.5a3.09 3.09 0 0 0 .951-2.259 3.09 3.09 0 0 0-.994-2.241v.002z" class="C"/><path d="M48.417 56.374a.75.75 0 0 1-.5-.208l-3.167-3.167a.75.75 0 0 1 0-1.042l18.875-18.792c.544-.543 1.238-.91 1.993-1.054s1.535-.057 2.24.248 1.302.815 1.714 1.464.619 1.406.595 2.174c-.022.521-.147 1.033-.369 1.505a3.92 3.92 0 0 1-.923 1.245l-19.958 17.5a.71.71 0 0 1-.5.125v.002zm-2.208-3.919l2.083 2.125 19.583-17.042a2.3 2.3 0 0 0 .792-1.667c.019-.642-.234-1.27-.708-1.708-.437-.435-1.029-.68-1.646-.68s-1.209.245-1.646.68L46.209 52.456z" class="B"/><path d="M30.834 73.915a.42.42 0 0 0 0 .5l.833 3.625c.033.213.002.432-.091.627s-.242.358-.428.467-.401.156-.615.134-.416-.111-.576-.254l-5.708-5.5 17.792-17.933h6.167l4.167 4.167c-6.5 5.683-13.748 10.45-21.542 14.167z" class="C"/><path d="M30.459 80.04a1.76 1.76 0 0 1-1.25-.542l-5.458-5.458a.67.67 0 0 1-.185-.232c-.043-.09-.066-.189-.066-.289s.022-.199.066-.289a.67.67 0 0 1 .185-.232L41.667 55.04c.1-.107.231-.179.375-.208h6.208a.75.75 0 0 1 .5 0l4.167 4.167c.079.073.139.164.176.266s.047.21.032.317a.67.67 0 0 1-.25.542l-.333.292c-6.527 5.441-13.707 10.046-21.375 13.708l.792 3.375c.061.26.064.531.007.793s-.171.507-.335.718-.372.384-.611.504-.501.186-.769.192l.208.333zm-5.083-6.542l4.916 4.958a.25.25 0 0 0 .333 0 .25.25 0 0 0 0-.292l-.833-3.625a1.16 1.16 0 0 1 .625-1.333c7.462-3.613 14.457-8.118 20.833-13.417l-3.417-3.417H42.25L25.377 73.498z" class="B"/><path d="M19.96 77.79l4.167-4.167 6.417 6.417-10.208-.708c-.175-.014-.342-.083-.476-.197s-.228-.267-.27-.438-.028-.35.038-.513.183-.3.332-.393l-.002-.002z" class="C"/><path d="M30.667 80.665L20.5 79.957a1.61 1.61 0 0 1-1.334-1.02c-.213-.552-.083-1.206.334-1.647l4.167-4.167a.75.75 0 0 1 1.042 0l6.375 6.375c.088.121.136.267.136.416s-.048.296-.136.416a.79.79 0 0 1-.417.333v.001zM20.5 78.332l8.333.542-4.583-4.292-3.75 3.75z" class="B"/><path d="M48.792 56.084l-8.417 1.292 4.875-4.833 3.542 3.541z" class="C"/><path d="M40.375 58.165a.71.71 0 0 1-.396-.108c-.119-.074-.213-.182-.271-.309-.089-.121-.137-.267-.137-.416s.048-.296.137-.416l4.833-4.875a.79.79 0 0 1 1.083 0l3.544 3.541c.071.112.108.242.108.375s-.038.263-.108.375c-.035.137-.108.261-.212.357s-.232.16-.371.185l-8.333 1.292h.123zm4.875-4.542l-2.708 2.708 4.667-.708-1.959-2z" class="B"/><path d="M48.792 56.081l-5.875.75a.75.75 0 0 1-.819-.362.75.75 0 0 1 .111-.888l3.042-3.042 3.541 3.542z" class="C"/><path d="M42.75 57.624a1.54 1.54 0 0 1-1.333-.792 1.5 1.5 0 0 1 .25-1.792l3.042-3.042a.79.79 0 0 1 1.083 0l3.542 3.542a.75.75 0 0 1 .191.795.75.75 0 0 1-.649.497l-5.833.75-.294.042zm0-1.542l4.417-.542-1.958-1.958-2.5 2.5h.041zM79 25.958c-.079-.131-.203-.23-.349-.276s-.304-.037-.444.026c-.069.035-.13.083-.18.142a.58.58 0 0 0-.111.201.59.59 0 0 0 .041.448 1.79 1.79 0 0 1-.208 1.875.53.53 0 0 0-.12.181c-.027.068-.039.141-.037.214.001.147.057.287.156.395.107.042.226.042.333 0a.55.55 0 0 0 .294-.008c.096-.029.181-.085.248-.159.343-.42.56-.929.627-1.467s-.021-1.084-.252-1.575v.002z" class="B"/></svg>