<svg xmlns="http://www.w3.org/2000/svg" width="80" height="80" viewBox="0 0 100 101" fill="none" xmlns:v="https://vecta.io/nano"><path d="M50.105 59.411a8.82 8.82 0 0 0 8.816-8.816 8.82 8.82 0 0 0-8.816-8.816 8.82 8.82 0 0 0-8.816 8.816 8.82 8.82 0 0 0 8.816 8.816z" fill="#61dafb"/><g stroke="#61dafb" stroke-width="5"><path d="M50.105 68.657c26.127 0 47.307-8.087 47.307-18.063s-21.18-18.063-47.307-18.063S2.798 40.619 2.798 50.594s21.18 18.063 47.307 18.063z"/><path d="M34.462 59.626c13.063 22.626 30.657 36.925 39.296 31.938s5.053-27.374-8.011-50S35.09 4.638 26.451 9.626s-5.053 27.374 8.011 50z"/><path d="M34.462 41.563c-13.063 22.627-16.65 45.012-8.011 50s26.233-9.311 39.296-31.937 16.65-45.012 8.011-50-26.233 9.311-39.296 31.937z"/></g></svg>