<svg xmlns="http://www.w3.org/2000/svg" width="80" height="80" viewBox="0 0 101 76" fill="none" xmlns:v="https://vecta.io/nano"><path d="M86.212 43.911c-3.489.018-6.521.858-9.06 2.1-.932-1.845-1.863-3.489-2.027-4.694-.183-1.406-.402-2.265-.183-3.945s1.206-4.073 1.187-4.256-.219-1.041-2.228-1.059-3.744.384-3.945.913a22.04 22.04 0 0 0-.84 2.977c-.347 1.827-4.018 8.347-6.119 11.763-.676-1.333-1.26-2.502-1.388-3.434-.183-1.406-.402-2.265-.183-3.945s1.206-4.073 1.187-4.256-.219-1.041-2.228-1.059-3.744.384-3.945.913-.42 1.772-.84 2.977-5.297 12.092-6.575 14.904a84.2 84.2 0 0 1-1.626 3.379s-.018.055-.073.146l-.548 1.041c-.274.511-.566.968-.712.968-.11 0-.31-1.315.037-3.105.731-3.781 2.466-9.662 2.448-9.863 0-.11.329-1.132-1.133-1.662-1.425-.53-1.936.347-2.064.347s-.219.31-.219.31 1.589-6.612-3.032-6.612c-2.886 0-6.868 3.16-8.84 6.009l-6.722 3.671-3.233 1.772c-.073-.073-.146-.164-.219-.237C17.498 44.003 7.16 39.783 7.598 31.765c.164-2.923 1.169-10.594 19.855-19.909 15.379-7.58 27.617-5.48 29.736-.822 3.032 6.649-6.557 18.996-22.448 20.786-6.064.676-9.242-1.662-10.046-2.539-.84-.913-.968-.968-1.279-.785-.511.274-.183 1.096 0 1.571.475 1.242 2.429 3.434 5.735 4.512 2.923.95 10.028 1.48 18.631-1.845 9.626-3.726 17.151-14.083 14.941-22.759-2.21-8.804-16.822-11.708-30.649-6.795-8.219 2.922-17.133 7.525-23.544 13.516C.913 23.819-.293 30.011.201 32.605c1.772 9.206 14.466 15.197 19.544 19.635-.256.146-.493.274-.694.384-2.539 1.26-12.22 6.32-14.631 11.672-2.74 6.064.438 10.411 2.539 10.996 6.521 1.808 13.224-1.443 16.822-6.813s3.16-12.347 1.498-15.544c-.018-.037-.037-.073-.073-.11l1.991-1.169c1.297-.767 2.576-1.48 3.671-2.064-.621 1.699-1.078 3.726-1.297 6.649-.274 3.434 1.132 7.891 2.977 9.644.822.767 1.79.785 2.411.785 2.155 0 3.123-1.79 4.201-3.909 1.315-2.594 2.502-5.608 2.502-5.608S40.184 65.3 44.202 65.3c1.461 0 2.941-1.9 3.598-2.868 0 .018.037-.036.11-.164l.238-.384v-.037c.584-1.023 1.9-3.343 3.854-7.197 2.521-4.968 4.95-11.178 4.95-11.178s.219 1.516.968 4.037c.438 1.479 1.352 3.105 2.082 4.676-.584.822-.95 1.279-.95 1.279l.018.018c-.475.621-.986 1.297-1.553 1.954-1.991 2.375-4.365 5.096-4.694 5.882-.384.931-.292 1.607.438 2.155.53.402 1.48.457 2.447.402 1.79-.128 3.05-.566 3.671-.84.968-.347 2.101-.877 3.16-1.662 1.954-1.443 3.142-3.507 3.032-6.229-.055-1.498-.548-2.995-1.151-4.402.183-.256.347-.511.53-.767 3.087-4.512 5.48-9.461 5.48-9.461s.219 1.516.968 4.037c.365 1.279 1.114 2.667 1.772 4.018-2.904 2.356-4.694 5.096-5.334 6.886-1.151 3.324-.256 4.822 1.443 5.169.767.164 1.863-.201 2.667-.548 1.023-.329 2.228-.895 3.379-1.735 1.954-1.443 3.836-3.452 3.726-6.174-.055-1.242-.384-2.466-.84-3.653 2.466-1.023 5.644-1.589 9.699-1.114 8.694 1.023 10.411 6.448 10.082 8.731s-2.155 3.525-2.758 3.909-.804.511-.749.785c.073.402.365.384.877.31.712-.128 4.566-1.845 4.731-6.046.274-5.37-4.84-11.233-13.882-11.178zm-67.07 22.613c-2.886 3.142-6.904 4.329-8.639 3.324-1.863-1.078-1.132-5.717 2.411-9.041 2.155-2.027 4.932-3.909 6.777-5.06l1.79-1.078c.128-.073.201-.11.201-.11l.438-.274c1.297 4.749.055 8.932-2.977 12.238zM40.147 52.24c-1.005 2.448-3.105 8.713-4.384 8.365-1.096-.292-1.772-5.041-.219-9.735.785-2.356 2.448-5.169 3.416-6.265 1.571-1.754 3.306-2.338 3.726-1.626.53.932-1.918 7.726-2.539 9.261zm17.334 8.292c-.42.219-.822.365-1.005.256-.128-.073.183-.365.183-.365s2.174-2.338 3.032-3.397l1.699-2.174v.237c0 2.795-2.703 4.676-3.909 5.443zm13.37-3.05c-.311-.219-.256-.95.785-3.233.402-.895 1.352-2.393 2.977-3.836.183.584.311 1.151.292 1.68-.018 3.525-2.539 4.84-4.055 5.388z" fill="#cd6799"/></svg>