<svg xmlns="http://www.w3.org/2000/svg" width="80" height="80" viewBox="0 0 101 101" fill="none" xmlns:v="https://vecta.io/nano"><path d="M.381.485h100v100h-100v-100z" fill="#017acb"/><path d="M48.396 37.516h4.797v8.281H40.224v36.844l-.344.094c-.469.125-6.641.125-7.969-.016l-1.062-.094V45.798H17.881v-8.281l4.109-.047h12.844l13.563.047zm36.609 41.219c-1.906 2.016-3.953 3.141-7.359 4.063-1.484.406-1.734.422-5.078.406s-3.609-.016-5.234-.438c-4.203-1.078-7.594-3.187-9.906-6.172-.656-.844-1.734-2.594-1.734-2.812 0-.062.156-.203.359-.297s.625-.359.969-.562.969-.578 1.391-.797 1.641-.937 2.703-1.578 2.031-1.156 2.141-1.156.313.219.469.484c.938 1.578 3.125 3.594 4.672 4.281.953.406 3.063.859 4.078.859.938 0 2.656-.406 3.578-.828.984-.453 1.484-.906 2.078-1.812.406-.641.453-.812.438-2.031 0-1.125-.062-1.437-.375-1.953-.875-1.437-2.062-2.187-6.875-4.312-4.969-2.203-7.203-3.516-9.016-5.281-1.344-1.312-1.609-1.672-2.453-3.312-1.094-2.109-1.234-2.797-1.25-5.937-.016-2.203.031-2.922.266-3.672.328-1.125 1.391-3.297 1.875-3.844 1-1.172 1.359-1.531 2.063-2.109 2.125-1.75 5.438-2.906 8.609-3.016.359 0 1.547.063 2.656.141 3.188.266 5.359 1.047 7.453 2.719 1.578 1.25 3.969 4.188 3.734 4.578-.156.234-6.391 4.391-6.797 4.516-.25.078-.422-.016-.766-.422-2.125-2.547-2.984-3.094-5.047-3.219-1.469-.094-2.25.078-3.234.734-1.031.688-1.531 1.734-1.531 3.188.016 2.125.828 3.125 3.828 4.609 1.938.953 3.594 1.734 3.719 1.734.188 0 4.203 2 5.25 2.625 4.875 2.859 6.859 5.797 7.375 10.859.375 3.813-.703 7.297-3.047 9.766z" fill="#fff"/></svg>