<svg xmlns="http://www.w3.org/2000/svg" viewBox="0 0 48 48" width="80" height="80" baseProfile="basic" xmlns:v="https://vecta.io/nano"><path fill="#9575cd" d="M44.86 9.976L25.023 45.448a1.08 1.08 0 0 1-1.878.008L2.915 9.979a1.08 1.08 0 0 1 1.126-1.595l19.859 3.55a1.07 1.07 0 0 0 .383-.001l19.443-3.544a1.08 1.08 0 0 1 1.134 1.587z"/><path fill="#fbc02d" d="M33.574 3.01L19.019 5.862c-.239.047-.416.25-.431.493l-.895 15.121c-.021.356.306.633.654.552l4.052-.935c.379-.087.722.246.644.628l-1.204 5.895c-.081.397.291.736.679.618l2.503-.76c.388-.118.761.222.679.62l-1.913 9.26c-.12.579.651.895.972.398l.215-.332 11.86-23.669c.199-.396-.144-.848-.579-.764l-4.171.805c-.392.076-.725-.289-.615-.673l2.722-9.438c.11-.382-.224-.748-.617-.671z"/></svg>